<?xml version="1.0" encoding="iso-8859-1"?>
<!-- Uploaded to: SVG Repo, www.svgrepo.com, Generator: SVG Repo Mixer Tools -->
<svg height="800px" width="800px" version="1.1" id="Layer_1" xmlns="http://www.w3.org/2000/svg" xmlns:xlink="http://www.w3.org/1999/xlink" 
	 viewBox="0 0 480 480" xml:space="preserve">
<g transform="translate(661.64 -540.36)">
	<path style="fill:#913D88;" d="M-531.994,720.961l215.25-137.625c6.6-4.275,15.375-2.325,19.575,4.275l80.325,125.55
		c4.2,6.6,2.325,15.375-4.35,19.65l-215.175,137.55c-6.675,4.275-15.375,2.325-19.65-4.275l-80.25-125.55
		C-540.544,733.936-538.594,725.161-531.994,720.961L-531.994,720.961z"/>
	<g>
		<path style="fill:#EBCA3D;" d="M-492.919,760.035l7.125,11.175l35.175-22.425l-7.2-11.249L-492.919,760.035L-492.919,760.035z"/>
		<path style="fill:#EBCA3D;" d="M-488.494,741.586l11.4,4.274l0.9-12.149L-488.494,741.586z"/>
	</g>
	<path style="fill:#913D88;" d="M-489.844,764.835l35.1-22.499l1.05,1.649l-35.175,22.425L-489.844,764.835z"/>
	<path style="fill:#EBCA3D;" d="M-472.744,778.485c-3.3,2.1-7.65,1.125-9.75-2.175l-2.25-3.45l16.875-10.8l-1.275,14.1
		L-472.744,778.485L-472.744,778.485z M-452.944,765.81l-13.2-4.875l16.5-10.575l2.25,3.525c2.1,3.3,1.2,7.65-2.175,9.825
		L-452.944,765.81L-452.944,765.81z"/>
	<g>
		<path style="fill:#913D88;" d="M-481.744,751.635l8.25,12.975l-1.65,1.05l-8.25-12.975L-481.744,751.635z"/>
		<path style="fill:#913D88;" d="M-468.469,743.16l8.25,12.9l-1.575,1.05l-8.325-12.9L-468.469,743.16z"/>
	</g>
	<path style="fill:#E74C3C;" d="M-262.595,719.611c6.6,10.275,3.6,23.999-6.75,30.599c-10.275,6.6-23.999,3.6-30.599-6.75
		c-6.6-10.274-3.6-23.999,6.75-30.599C-282.92,706.26-269.195,709.26-262.595,719.611z"/>
	<path style="fill:#FCD116;" d="M-237.769,703.711c6.6,10.35,3.6,24-6.675,30.6c-10.35,6.6-24.075,3.6-30.675-6.675
		c-6.6-10.35-3.6-24.075,6.75-30.675C-258.019,690.36-244.369,693.36-237.769,703.711z"/>
	<g>
		<g>
			<path style="fill:#E74C3C;" d="M-288.552,717.882l20.775-13.275l1.125,1.8l-20.775,13.275L-288.552,717.882z"/>
		</g>
		<g>
			<path style="fill:#E74C3C;" d="M-286.302,721.407l20.775-13.275l1.125,1.725l-20.775,13.275L-286.302,721.407z"/>
		</g>
		<path style="fill:#E74C3C;" d="M-276.155,709.969l-12.389,7.916l1.125,1.801l13.941-8.908
			C-274.352,710.45-275.248,710.185-276.155,709.969z"/>
		<path style="fill:#E74C3C;" d="M-271.22,711.778l-15.074,9.633l1.125,1.725l15.959-10.197
			C-269.862,712.515-270.532,712.128-271.22,711.778z"/>
		<g>
			<path style="fill:#E74C3C;" d="M-284.052,724.857l20.775-13.275l1.125,1.8l-20.775,13.275L-284.052,724.857z"/>
		</g>
		<g>
			<path style="fill:#E74C3C;" d="M-281.802,728.382l20.7-13.275l1.125,1.725l-20.775,13.275L-281.802,728.382z"/>
		</g>
		<path style="fill:#E74C3C;" d="M-267.417,714.235l-16.627,10.625l1.125,1.801l17.152-10.959
			C-266.295,715.182-266.846,714.693-267.417,714.235L-267.417,714.235z"/>
		<path style="fill:#E74C3C;" d="M-264.368,717.21l-17.426,11.176l1.049,1.725l17.633-11.268
			C-263.509,718.274-263.929,717.73-264.368,717.21z"/>
		<g>
			<path style="fill:#E74C3C;" d="M-279.627,731.832l20.775-13.275l1.125,1.8l-20.775,13.275L-279.627,731.832z"/>
		</g>
		<g>
			<path style="fill:#E74C3C;" d="M-277.377,735.357l20.775-13.275l1.125,1.725l-20.775,13.275L-277.377,735.357z"/>
		</g>
		<path style="fill:#E74C3C;" d="M-262.005,720.581l-17.615,11.256l1.125,1.799l17.457-11.154
			C-261.328,721.838-261.648,721.204-262.005,720.581L-262.005,720.581z"/>
		<path style="fill:#E74C3C;" d="M-260.269,724.434l-17.102,10.926l1.125,1.727l16.568-10.586
			C-259.839,725.806-260.036,725.117-260.269,724.434z"/>
		<g>
			<path style="fill:#E74C3C;" d="M-275.127,738.807l20.775-13.275l1.05,1.8l-20.7,13.275L-275.127,738.807z"/>
		</g>
		<g>
			<path style="fill:#E74C3C;" d="M-272.877,742.332l20.7-13.275l1.125,1.725l-20.775,13.274L-272.877,742.332z"/>
		</g>
		<path style="fill:#E74C3C;" d="M-259.278,728.688l-15.842,10.123l1.125,1.799l14.895-9.551
			C-259.117,730.269-259.176,729.477-259.278,728.688L-259.278,728.688z"/>
		<path style="fill:#E74C3C;" d="M-259.196,733.567l-13.674,8.77l1.051,1.723l12.213-7.803
			C-259.413,735.37-259.28,734.471-259.196,733.567z"/>
	</g>
	<path d="M-411.695,752.76l8.175-5.175l0.525,0.675l3,15l-1.8,1.125l-2.85-14.025l-6.075,3.9L-411.695,752.76L-411.695,752.76z"/>
	<g>
		<path style="fill:#74316D;" d="M-400.145,745.41l6.75-4.349l0.975,1.5l-5.175,3.299l1.95,3.075c0.225-0.225,0.45-0.45,0.675-0.675
			c0.225-0.15,0.45-0.375,0.675-0.525c1.425-0.9,2.775-1.2,4.125-0.975s2.4,1.05,3.3,2.325c0.825,1.425,1.125,2.7,0.75,4.05
			c-0.375,1.275-1.35,2.4-2.925,3.45c-0.525,0.3-1.05,0.6-1.725,0.9c-0.6,0.225-1.2,0.45-1.95,0.675l-1.125-1.725
			c0.75-0.075,1.35-0.15,2.025-0.375c0.6-0.225,1.275-0.525,1.875-0.9c0.975-0.675,1.575-1.425,1.8-2.325
			c0.225-0.825,0.075-1.725-0.45-2.625c-0.6-0.9-1.35-1.425-2.25-1.575c-0.9-0.15-1.8,0.15-2.775,0.75c-0.525,0.3-0.9,0.6-1.35,1.05
			c-0.375,0.375-0.75,0.825-1.05,1.35L-400.145,745.41L-400.145,745.41z"/>
		<path style="fill:#74316D;" d="M-380.344,748.635l6-3.825l0.9,1.425l-8.025,5.175l-0.975-1.425c0.225-1.125,0.6-2.625,0.975-4.425
			c0.375-1.875,0.6-3.074,0.675-3.599c0.225-0.975,0.225-1.725,0.15-2.325c0-0.525-0.15-1.05-0.45-1.425
			c-0.45-0.675-1.05-1.125-1.8-1.2c-0.75-0.15-1.5,0-2.25,0.525c-0.525,0.375-1.05,0.825-1.5,1.35c-0.45,0.6-0.975,1.275-1.35,2.1
			l-1.125-1.725c0.525-0.75,1.05-1.35,1.5-1.875c0.525-0.525,1.05-0.975,1.575-1.275c1.275-0.825,2.55-1.2,3.75-1.05
			c1.2,0.15,2.175,0.825,2.85,1.875c0.375,0.525,0.525,1.125,0.675,1.725c0.075,0.6,0.075,1.35,0,2.325
			c-0.075,0.225-0.225,1.05-0.45,2.324C-379.52,744.51-379.895,746.31-380.344,748.635L-380.344,748.635z"/>
		<path style="fill:#74316D;" d="M-362.419,722.911c-0.9,0.525-1.275,1.425-1.125,2.55c0.075,1.2,0.675,2.625,1.8,4.35
			c1.125,1.8,2.175,2.925,3.15,3.525c1.05,0.6,1.95,0.6,2.85,0c0.9-0.525,1.275-1.425,1.2-2.55c-0.15-1.2-0.75-2.625-1.875-4.35
			c-1.125-1.8-2.175-2.925-3.15-3.525C-360.544,722.311-361.519,722.311-362.419,722.911z M-363.319,721.561
			c1.425-0.975,2.925-1.05,4.35-0.45c1.5,0.675,2.925,2.1,4.275,4.2c1.425,2.175,2.025,4.05,2.025,5.625
			c0,1.65-0.75,2.85-2.175,3.75c-1.425,0.975-2.85,1.05-4.35,0.45c-1.5-0.675-2.925-2.025-4.275-4.2
			c-1.35-2.175-2.025-4.05-2.025-5.625C-365.419,723.736-364.744,722.461-363.319,721.561L-363.319,721.561z"/>
		<path style="fill:#74316D;" d="M-351.319,715.786c-0.9,0.6-1.275,1.425-1.125,2.625c0.075,1.125,0.675,2.55,1.8,4.35
			c1.125,1.725,2.175,2.85,3.225,3.45c0.975,0.6,1.95,0.6,2.775,0.075c0.9-0.6,1.275-1.425,1.2-2.625
			c-0.15-1.125-0.75-2.625-1.875-4.35c-1.125-1.725-2.175-2.925-3.15-3.45C-349.444,715.261-350.419,715.261-351.319,715.786z
			 M-352.219,714.436c1.425-0.9,2.925-1.05,4.35-0.375c1.5,0.6,2.925,2.025,4.275,4.125c1.425,2.175,2.025,4.05,2.025,5.7
			c0,1.575-0.75,2.85-2.175,3.75c-1.425,0.9-2.85,1.05-4.35,0.375c-1.5-0.6-2.925-2.025-4.275-4.2
			c-1.35-2.1-2.025-3.975-2.025-5.625C-354.319,716.61-353.644,715.335-352.219,714.436L-352.219,714.436z"/>
		<path style="fill:#74316D;" d="M-340.219,708.661c-0.9,0.6-1.275,1.5-1.125,2.625c0.075,1.125,0.675,2.625,1.8,4.35
			s2.175,2.925,3.225,3.525c0.975,0.525,1.95,0.6,2.775,0c0.9-0.6,1.275-1.425,1.2-2.55c-0.15-1.2-0.75-2.625-1.875-4.35
			c-1.05-1.8-2.175-2.925-3.15-3.525S-339.319,708.135-340.219,708.661L-340.219,708.661z M-341.044,707.31
			c1.425-0.9,2.85-1.05,4.275-0.375c1.5,0.675,2.925,2.025,4.275,4.2c1.425,2.1,2.1,3.975,2.025,5.625c0,1.575-0.75,2.85-2.175,3.75
			c-1.425,0.9-2.85,1.05-4.35,0.45c-1.5-0.675-2.925-2.1-4.275-4.2c-1.35-2.175-2.025-4.05-2.025-5.625
			C-343.219,709.486-342.469,708.211-341.044,707.31L-341.044,707.31z"/>
		<path style="fill:#74316D;" d="M-333.919,703.11l8.175-5.25l0.45,0.75l3.075,14.925l-1.8,1.125l-2.925-14.025l-6.075,3.9
			L-333.919,703.11L-333.919,703.11z"/>
		<path style="fill:#74316D;" d="M-303.769,691.785c-0.825,0.525-1.2,1.2-1.35,1.95c-0.075,0.825,0.15,1.725,0.75,2.625
			c0.525,0.9,1.275,1.5,2.025,1.725c0.825,0.3,1.575,0.15,2.325-0.375c0.825-0.45,1.2-1.125,1.35-1.95
			c0.075-0.825-0.15-1.725-0.675-2.625c-0.6-0.9-1.35-1.5-2.1-1.725C-302.269,691.185-303.019,691.335-303.769,691.785z
			 M-303.844,684.21l1.05,1.575c-0.6,0.075-1.125,0.225-1.65,0.375c-0.525,0.15-0.975,0.375-1.425,0.675
			c-1.125,0.75-1.725,1.65-1.8,2.85c-0.15,1.125,0.225,2.475,1.2,4.125c0-0.75,0.15-1.35,0.525-1.95c0.3-0.6,0.75-1.125,1.425-1.5
			c1.275-0.825,2.475-1.05,3.75-0.75c1.2,0.3,2.25,1.125,3.15,2.475c0.825,1.275,1.05,2.55,0.825,3.825
			c-0.3,1.275-1.05,2.325-2.325,3.15c-1.5,0.975-2.925,1.125-4.425,0.525c-1.5-0.675-3-2.025-4.35-4.2
			c-1.275-2.025-1.8-3.9-1.65-5.7c0.225-1.8,1.125-3.225,2.7-4.275c0.45-0.225,0.9-0.525,1.425-0.675
			C-304.969,684.51-304.369,684.36-303.844,684.21L-303.844,684.21z"/>
		<path style="fill:#74316D;" d="M-300.619,681.81l8.175-5.25l0.45,0.75l3.074,14.925l-1.8,1.125l-2.849-14.025l-6.15,3.9
			L-300.619,681.81L-300.619,681.81z"/>
		<path style="fill:#74316D;" d="M-281.12,686.835l-0.975-1.575c0.6-0.075,1.125-0.15,1.65-0.375c0.45-0.15,0.975-0.375,1.35-0.675
			c1.125-0.675,1.8-1.65,1.875-2.775c0.15-1.125-0.3-2.55-1.2-4.125c0,0.675-0.15,1.35-0.525,1.875c-0.3,0.6-0.825,1.125-1.425,1.5
			c-1.275,0.825-2.55,1.05-3.75,0.75c-1.2-0.3-2.25-1.125-3.15-2.4c-0.825-1.35-1.125-2.625-0.825-3.9
			c0.3-1.275,1.05-2.325,2.325-3.15c1.5-0.975,2.925-1.125,4.425-0.45c1.5,0.6,2.925,2.025,4.35,4.125c1.275,2.025,1.8,3.9,1.65,5.7
			c-0.225,1.8-1.125,3.225-2.7,4.275c-0.45,0.3-0.9,0.525-1.425,0.675C-279.995,686.535-280.52,686.685-281.12,686.835
			L-281.12,686.835z M-281.12,679.26c0.75-0.525,1.2-1.125,1.35-1.95c0.075-0.825-0.15-1.725-0.75-2.625
			c-0.525-0.9-1.275-1.5-2.025-1.725c-0.825-0.225-1.575-0.15-2.325,0.375c-0.825,0.525-1.275,1.125-1.35,1.95
			c-0.15,0.825,0.15,1.725,0.675,2.625c0.6,0.9,1.275,1.5,2.1,1.725C-282.695,679.86-281.87,679.785-281.12,679.26z"/>
		<path style="fill:#74316D;" d="M-270.47,678.36l2.775-1.725l-6.225-9.75l-2.625,2.55l-0.975-1.5l2.625-2.625l1.725-1.05l7.2,11.25
			l2.775-1.8l0.975,1.425l-7.35,4.725L-270.47,678.36z"/>
	</g>
	<g>
		<path style="fill:#DCC6E0;" d="M-412.595,752.685l8.175-5.25l0.45,0.75l3.075,14.925l-1.8,1.125l-2.85-14.025l-6.15,3.9
			L-412.595,752.685L-412.595,752.685z"/>
		<path style="fill:#DCC6E0;" d="M-401.045,745.26l6.75-4.274l0.9,1.425l-5.175,3.299l2.025,3.15c0.225-0.225,0.375-0.45,0.6-0.675
			s0.45-0.375,0.75-0.525c1.425-0.9,2.775-1.275,4.125-1.05c1.275,0.3,2.4,1.05,3.225,2.4c0.9,1.35,1.125,2.7,0.75,3.975
			c-0.375,1.35-1.275,2.475-2.85,3.45c-0.525,0.375-1.125,0.675-1.725,0.9c-0.6,0.3-1.275,0.525-1.95,0.75l-1.125-1.8
			c0.675,0,1.35-0.15,1.95-0.375c0.675-0.225,1.275-0.525,1.875-0.9c0.975-0.6,1.575-1.35,1.875-2.25
			c0.225-0.9,0.075-1.8-0.525-2.625c-0.525-0.9-1.275-1.425-2.175-1.575c-0.9-0.15-1.875,0.075-2.85,0.75
			c-0.45,0.225-0.9,0.6-1.275,0.975c-0.375,0.45-0.75,0.9-1.125,1.425L-401.045,745.26L-401.045,745.26z"/>
		<path style="fill:#DCC6E0;" d="M-381.244,748.485l6-3.825l0.9,1.5l-8.1,5.1l-0.9-1.425c0.225-1.05,0.525-2.55,0.9-4.425
			c0.45-1.875,0.675-3.074,0.75-3.524c0.15-0.975,0.225-1.8,0.15-2.325c-0.075-0.6-0.225-1.05-0.45-1.5
			c-0.45-0.675-1.05-1.05-1.8-1.2c-0.75-0.075-1.5,0.075-2.25,0.6c-0.525,0.3-1.05,0.75-1.575,1.35c-0.45,0.525-0.9,1.275-1.35,2.1
			l-1.125-1.8c0.525-0.675,1.05-1.35,1.575-1.875c0.525-0.525,0.975-0.9,1.5-1.2c1.35-0.9,2.55-1.2,3.75-1.05
			c1.275,0.15,2.175,0.75,2.925,1.875c0.3,0.525,0.525,1.05,0.6,1.65c0.15,0.6,0.15,1.425,0,2.4c0,0.225-0.15,0.975-0.45,2.249
			C-380.42,744.435-380.795,746.235-381.244,748.485L-381.244,748.485z"/>
		<path style="fill:#DCC6E0;" d="M-363.319,722.761c-0.9,0.6-1.275,1.425-1.2,2.625c0.15,1.125,0.75,2.625,1.875,4.35
			c1.125,1.725,2.175,2.925,3.15,3.525c0.975,0.525,1.95,0.525,2.85,0c0.9-0.6,1.275-1.425,1.125-2.625
			c-0.075-1.125-0.675-2.55-1.8-4.35c-1.125-1.725-2.175-2.85-3.225-3.45C-361.519,722.236-362.494,722.236-363.319,722.761
			L-363.319,722.761z M-364.219,721.411c1.425-0.9,2.85-1.05,4.35-0.375s2.925,2.025,4.275,4.2c1.35,2.1,2.025,3.975,2.025,5.625
			c-0.075,1.575-0.825,2.85-2.25,3.75c-1.425,0.9-2.85,1.05-4.35,0.375c-1.425-0.6-2.85-2.025-4.2-4.125
			c-1.425-2.175-2.1-4.05-2.025-5.625C-366.394,723.586-365.644,722.31-364.219,721.411L-364.219,721.411z"/>
		<path style="fill:#DCC6E0;" d="M-352.219,715.711c-0.9,0.525-1.275,1.425-1.2,2.55c0.15,1.2,0.75,2.625,1.875,4.35
			c1.125,1.725,2.175,2.925,3.15,3.525s1.95,0.6,2.85,0c0.9-0.525,1.275-1.425,1.125-2.55c-0.075-1.2-0.675-2.625-1.8-4.35
			c-1.125-1.8-2.175-2.925-3.225-3.525C-350.419,715.111-351.319,715.111-352.219,715.711L-352.219,715.711z M-353.119,714.361
			c1.425-0.975,2.85-1.05,4.35-0.45c1.5,0.675,2.925,2.025,4.275,4.2c1.35,2.175,2.025,4.05,2.025,5.625
			c-0.075,1.575-0.825,2.85-2.25,3.75c-1.425,0.975-2.85,1.05-4.35,0.45c-1.425-0.675-2.85-2.025-4.2-4.2
			c-1.425-2.175-2.1-4.05-2.025-5.625C-355.294,716.536-354.544,715.261-353.119,714.361L-353.119,714.361z"/>
		<path style="fill:#DCC6E0;" d="M-341.119,708.586c-0.9,0.6-1.275,1.425-1.2,2.625c0.15,1.125,0.75,2.55,1.875,4.35
			c1.125,1.725,2.175,2.85,3.15,3.45c0.975,0.6,1.95,0.6,2.85,0.075c0.9-0.6,1.275-1.5,1.125-2.625
			c-0.075-1.125-0.675-2.625-1.8-4.35c-1.125-1.725-2.175-2.925-3.15-3.525C-339.319,708.061-340.219,707.986-341.119,708.586
			L-341.119,708.586z M-342.019,707.235c1.425-0.9,2.85-1.05,4.35-0.375c1.5,0.6,2.925,2.025,4.275,4.125
			c1.35,2.175,2.025,4.05,2.025,5.625c-0.075,1.65-0.825,2.925-2.25,3.825c-1.425,0.9-2.85,1.05-4.275,0.375
			c-1.5-0.675-2.925-2.025-4.275-4.2c-1.425-2.1-2.1-3.975-2.025-5.625C-344.194,709.41-343.444,708.135-342.019,707.235
			L-342.019,707.235z"/>
		<path style="fill:#DCC6E0;" d="M-334.894,702.96l8.175-5.175l0.45,0.675l3.075,15l-1.8,1.125l-2.85-14.025l-6.075,3.9
			L-334.894,702.96L-334.894,702.96z"/>
		<path style="fill:#DCC6E0;" d="M-304.744,691.71c-0.75,0.45-1.2,1.125-1.275,1.95c-0.15,0.825,0.075,1.65,0.675,2.625
			c0.6,0.9,1.275,1.5,2.1,1.725c0.75,0.225,1.575,0.075,2.325-0.375c0.75-0.525,1.2-1.2,1.275-1.95
			c0.15-0.825-0.075-1.725-0.675-2.625c-0.6-0.9-1.275-1.5-2.1-1.725C-303.169,691.11-303.919,691.186-304.744,691.71
			L-304.744,691.71z M-304.744,684.135l0.975,1.575c-0.525,0.075-1.05,0.15-1.575,0.375c-0.525,0.15-0.975,0.375-1.425,0.675
			c-1.125,0.675-1.725,1.65-1.875,2.775c-0.075,1.125,0.3,2.55,1.2,4.125c0-0.675,0.225-1.35,0.525-1.95
			c0.375-0.6,0.825-1.05,1.425-1.425c1.275-0.825,2.55-1.125,3.75-0.75c1.275,0.225,2.325,1.05,3.15,2.4
			c0.825,1.35,1.125,2.625,0.825,3.9c-0.225,1.275-0.975,2.325-2.325,3.15c-1.425,0.9-2.925,1.125-4.425,0.45
			c-1.5-0.6-2.925-2.025-4.275-4.125c-1.275-2.025-1.875-3.9-1.65-5.7c0.15-1.875,1.05-3.225,2.7-4.275
			c0.45-0.3,0.9-0.525,1.35-0.75C-305.869,684.435-305.344,684.285-304.744,684.135L-304.744,684.135z"/>
		<path style="fill:#DCC6E0;" d="M-301.594,681.66l8.175-5.175l0.525,0.675l2.999,15l-1.799,1.125l-2.85-14.025l-6.075,3.9
			L-301.594,681.66L-301.594,681.66z"/>
		<path style="fill:#DCC6E0;" d="M-282.02,686.76l-0.975-1.575c0.525-0.075,1.05-0.225,1.575-0.375
			c0.525-0.225,0.975-0.45,1.425-0.675c1.125-0.75,1.725-1.65,1.875-2.85c0.075-1.125-0.3-2.475-1.2-4.125
			c0,0.75-0.225,1.35-0.525,1.95c-0.375,0.6-0.825,1.05-1.425,1.425c-1.275,0.825-2.55,1.125-3.75,0.825
			c-1.275-0.3-2.325-1.125-3.15-2.475c-0.825-1.275-1.125-2.55-0.825-3.9c0.225-1.275,0.975-2.325,2.325-3.15
			c1.425-0.9,2.925-1.05,4.425-0.45c1.5,0.675,2.925,2.025,4.275,4.2c1.275,1.95,1.875,3.9,1.65,5.7c-0.15,1.8-1.05,3.225-2.7,4.2
			c-0.45,0.3-0.9,0.525-1.35,0.75C-280.895,686.46-281.42,686.61-282.02,686.76L-282.02,686.76z M-282.02,679.185
			c0.75-0.525,1.2-1.2,1.275-2.025c0.15-0.825-0.075-1.65-0.675-2.55c-0.6-0.975-1.275-1.5-2.1-1.725
			c-0.75-0.3-1.575-0.15-2.325,0.375c-0.75,0.45-1.2,1.125-1.35,1.95c-0.075,0.825,0.15,1.65,0.75,2.55
			c0.6,0.975,1.275,1.5,2.025,1.8C-283.595,679.785-282.845,679.635-282.02,679.185L-282.02,679.185z"/>
		<path style="fill:#DCC6E0;" d="M-271.445,678.285l2.85-1.8l-6.225-9.675l-2.7,2.55l-0.975-1.575l2.625-2.55l1.725-1.125
			l7.2,11.325l2.85-1.8l0.9,1.425l-7.275,4.65L-271.445,678.285L-271.445,678.285z"/>
	</g>
	<g>
		<path style="fill:#EBCA3D;" d="M-380.419,636.81l1.35-0.825l7.5,7.05l-3.3-9.75l1.575-0.975l7.5,7.125l-3.3-9.825l1.35-0.9
			l3.9,11.625l-1.725,1.05l-7.65-7.275l3.375,10.05l-1.65,1.05L-380.419,636.81z"/>
		<path style="fill:#EBCA3D;" d="M-356.344,622.71c-0.975,0.675-1.5,1.5-1.65,2.625c-0.075,1.125,0.225,2.25,1.05,3.525
			c0.825,1.275,1.725,2.1,2.775,2.475c1.05,0.3,2.025,0.225,3.075-0.45c0.975-0.6,1.5-1.5,1.575-2.55
			c0.15-1.125-0.225-2.325-1.05-3.525c-0.75-1.275-1.725-2.1-2.775-2.475S-355.369,622.11-356.344,622.71z M-357.019,621.66
			c1.35-0.9,2.775-1.125,4.2-0.75c1.5,0.375,2.7,1.35,3.675,3c1.05,1.575,1.425,3.075,1.2,4.575
			c-0.225,1.425-1.05,2.625-2.475,3.525s-2.85,1.125-4.275,0.75s-2.625-1.425-3.675-3c-0.975-1.575-1.425-3.075-1.125-4.575
			C-359.269,623.76-358.444,622.56-357.019,621.66z"/>
		<path style="fill:#EBCA3D;" d="M-337.069,616.635c0.3-0.075,0.75-0.075,1.2,0.075c0.525,0.15,1.05,0.375,1.725,0.75l3.075,1.875
			l-1.425,0.975l-2.925-1.8c-0.75-0.45-1.35-0.675-1.8-0.675c-0.45-0.075-0.975,0.15-1.5,0.45l-1.5,0.975l2.7,4.2l-1.35,0.825
			l-6.375-9.975l3.075-1.95c1.125-0.675,2.175-1.05,3-0.9c0.9,0.15,1.65,0.675,2.25,1.65c0.375,0.6,0.6,1.2,0.525,1.8
			C-336.394,615.51-336.619,616.11-337.069,616.635L-337.069,616.635z M-343.144,614.61l2.25,3.525l1.725-1.125
			c0.6-0.375,1.05-0.825,1.125-1.35c0.15-0.525,0.075-1.05-0.3-1.65c-0.375-0.6-0.825-0.9-1.35-0.975
			c-0.525-0.15-1.125,0.075-1.8,0.45L-343.144,614.61L-343.144,614.61z"/>
		<path style="fill:#EBCA3D;" d="M-330.694,605.085l1.35-0.9l5.625,8.85l4.875-3.075l0.75,1.125l-6.225,3.975L-330.694,605.085z"/>
		<path style="fill:#EBCA3D;" d="M-316.069,597.21l5.025,7.8l1.575-1.05c1.425-0.9,2.175-1.8,2.475-2.85
			c0.225-1.05-0.075-2.25-0.975-3.6c-0.825-1.35-1.8-2.1-2.85-2.325c-0.975-0.225-2.25,0.15-3.6,1.05L-316.069,597.21z
			 M-318.094,596.985l2.775-1.8c1.95-1.2,3.6-1.725,5.025-1.5c1.425,0.225,2.7,1.2,3.75,2.925c1.125,1.725,1.5,3.3,1.05,4.65
			c-0.375,1.425-1.5,2.7-3.45,3.975l-2.775,1.725L-318.094,596.985L-318.094,596.985z"/>
	</g>
	<path style="fill:#7B3474;" d="M-609.782,714.102l175.867-164.348c5.446-5.064,13.852-4.789,18.917,0.656l95.907,102.575
		c5.065,5.446,4.715,13.855-0.656,18.918l-175.867,164.348c-5.446,5.065-13.853,4.789-18.918-0.656l-95.831-102.577
		C-615.427,727.573-615.152,719.165-609.782,714.102z"/>
	<path style="fill:#F1F8F5;" d="M-611.419,713.611l171.075-169.35c5.25-5.25,13.725-5.175,18.899,0.075l98.776,99.75
		c5.25,5.325,5.175,13.725-0.075,18.975l-171.075,169.35c-5.25,5.175-13.65,5.175-18.9-0.15l-98.775-99.75
		C-616.67,727.261-616.67,718.786-611.419,713.611L-611.419,713.611z"/>
	<path style="fill:#3B3C3D;" d="M-602.644,741.436l190.05-188.176l25.8,26.1l-190.05,188.175L-602.644,741.436z"/>
	<path style="fill:#E2BC44;" d="M-532.444,756.66l17.175-16.949c6.525-6.525,17.4-6,24.375,1.05
		c6.975,7.049,7.35,17.924,0.825,24.449l-17.175,16.95c-6.525,6.525-17.4,6-24.375-1.05
		C-538.669,774.06-538.969,763.185-532.444,756.66L-532.444,756.66z"/>
	<g>
		<path style="fill:#3B3C3D;" d="M-432.094,643.935l1.275,2.7l1.425-1.5L-432.094,643.935z M-432.919,643.71l0.6-0.6l5.475,2.475
			l-0.6,0.525l-1.35-0.675l-1.8,1.8l0.675,1.35l-0.6,0.525L-432.919,643.71L-432.919,643.71z"/>
		<path style="fill:#3B3C3D;" d="M-430.294,641.085l0.525-0.525l2.4,2.4c0.45,0.45,0.825,0.675,1.125,0.675
			c0.374,0.075,0.674-0.075,1.049-0.45c0.375-0.3,0.525-0.675,0.45-0.975c0-0.375-0.225-0.75-0.675-1.2l-2.399-2.4l0.6-0.525
			l2.399,2.475c0.525,0.525,0.75,1.05,0.825,1.575c0,0.525-0.3,0.975-0.75,1.5c-0.525,0.45-1.05,0.75-1.574,0.75
			c-0.45-0.075-0.975-0.3-1.5-0.825L-430.294,641.085L-430.294,641.085z"/>
		<path style="fill:#3B3C3D;" d="M-426.769,637.635l3.299-3.3l0.45,0.45l-1.35,1.35l3.45,3.525l-0.525,0.525l-3.525-3.45
			l-1.349,1.35L-426.769,637.635L-426.769,637.635z"/>
		<path style="fill:#3B3C3D;" d="M-422.945,633.81l0.525-0.525l1.65,1.65l1.95-1.95l-1.65-1.65l0.525-0.525l3.975,3.975
			l-0.525,0.525l-1.875-1.875l-1.95,1.95l1.875,1.875l-0.6,0.525L-422.945,633.81L-422.945,633.81z"/>
		<path style="fill:#3B3C3D;" d="M-416.87,628.56c-0.375,0.375-0.6,0.825-0.525,1.35c0.075,0.525,0.375,1.05,0.825,1.5
			c0.525,0.525,1.05,0.825,1.5,0.825c0.525,0.075,0.975-0.075,1.425-0.45c0.375-0.375,0.525-0.825,0.45-1.35
			c-0.075-0.525-0.3-1.05-0.825-1.5c-0.525-0.525-0.975-0.825-1.5-0.825C-416.045,628.035-416.495,628.185-416.87,628.56z
			 M-417.32,628.11c0.6-0.525,1.2-0.825,1.875-0.75c0.75,0.075,1.35,0.375,2.025,0.975c0.6,0.675,0.9,1.275,0.975,2.025
			c0,0.675-0.225,1.275-0.825,1.875c-0.525,0.525-1.125,0.825-1.875,0.75c-0.675-0.075-1.35-0.375-1.95-0.975
			c-0.6-0.675-0.975-1.275-0.975-2.025C-418.145,629.31-417.845,628.635-417.32,628.11L-417.32,628.11z"/>
		<path style="fill:#3B3C3D;" d="M-410.645,625.785c0.15-0.075,0.375-0.075,0.6-0.075s0.525,0.075,0.825,0.225l1.65,0.525l-0.6,0.6
			l-1.5-0.525c-0.375-0.15-0.675-0.225-0.9-0.15c-0.225,0-0.45,0.15-0.6,0.375l-0.6,0.525l1.65,1.725l-0.525,0.525l-3.9-3.975
			l1.2-1.2c0.45-0.45,0.825-0.675,1.275-0.75c0.375,0,0.825,0.15,1.2,0.525c0.225,0.3,0.375,0.525,0.45,0.825
			C-410.42,625.26-410.495,625.485-410.645,625.785L-410.645,625.785z M-413.57,625.485l1.35,1.35l0.675-0.6
			c0.225-0.3,0.375-0.525,0.375-0.825c0.075-0.225-0.075-0.45-0.3-0.675s-0.45-0.375-0.675-0.375c-0.3,0.075-0.525,0.15-0.75,0.45
			L-413.57,625.485L-413.57,625.485z"/>
		<path style="fill:#3B3C3D;" d="M-410.795,621.81l0.525-0.525l3.9,3.975l-0.525,0.525L-410.795,621.81L-410.795,621.81z"/>
		<path style="fill:#3B3C3D;" d="M-406.67,617.985l0.45,0.525c-0.3,0.15-0.525,0.225-0.75,0.375c-0.225,0.15-0.45,0.3-0.6,0.45
			c-0.3,0.3-0.45,0.6-0.525,0.825c0,0.3,0.075,0.525,0.225,0.75c0.225,0.15,0.375,0.225,0.6,0.225c0.15,0,0.45-0.15,0.825-0.375
			l0.375-0.225c0.45-0.375,0.9-0.525,1.275-0.525c0.375,0,0.75,0.15,1.05,0.525c0.375,0.375,0.525,0.75,0.45,1.2
			c-0.075,0.45-0.3,0.975-0.825,1.425c-0.15,0.225-0.375,0.375-0.675,0.525c-0.225,0.225-0.525,0.375-0.825,0.45l-0.525-0.525
			c0.3-0.075,0.6-0.225,0.9-0.375c0.225-0.15,0.525-0.3,0.675-0.525c0.3-0.3,0.525-0.525,0.525-0.825c0.075-0.3,0-0.525-0.225-0.75
			c-0.225-0.225-0.375-0.3-0.675-0.3c-0.225,0-0.45,0.075-0.825,0.3l-0.375,0.3c-0.45,0.3-0.9,0.45-1.2,0.45
			c-0.375,0-0.675-0.15-0.975-0.45c-0.375-0.3-0.525-0.75-0.45-1.2c0-0.375,0.3-0.825,0.675-1.275
			c0.225-0.15,0.45-0.375,0.675-0.525C-407.195,618.286-406.97,618.135-406.67,617.985L-406.67,617.985z"/>
		<path style="fill:#3B3C3D;" d="M-405.77,616.86l2.475-2.475l0.45,0.45l-1.95,1.875l1.2,1.2l1.875-1.875l0.45,0.45l-1.875,1.875
			l1.425,1.425l1.95-1.95l0.45,0.45l-2.55,2.475L-405.77,616.86L-405.77,616.86z"/>
		<path style="fill:#3B3C3D;" d="M-401.345,613.335l3,3.075l0.675-0.675c0.525-0.525,0.825-1.05,0.825-1.5
			c0-0.525-0.225-1.05-0.75-1.575c-0.525-0.525-1.05-0.75-1.575-0.75c-0.45,0-0.975,0.225-1.575,0.75L-401.345,613.335z
			 M-402.32,613.41l1.125-1.05c0.75-0.75,1.425-1.2,2.1-1.2c0.675-0.075,1.35,0.3,2.025,0.975c0.675,0.675,0.975,1.35,0.975,2.025
			c-0.075,0.675-0.45,1.35-1.2,2.1l-1.125,1.125L-402.32,613.41L-402.32,613.41z"/>
		<path style="fill:#3B3C3D;" d="M-422.87,646.41l0.45,0.525c-0.3,0.075-0.525,0.225-0.75,0.375c-0.225,0.075-0.45,0.225-0.6,0.45
			c-0.3,0.225-0.45,0.525-0.525,0.825c0,0.225,0.075,0.45,0.225,0.675c0.225,0.225,0.375,0.3,0.6,0.3
			c0.15-0.075,0.45-0.15,0.825-0.45l0.375-0.225c0.45-0.3,0.9-0.45,1.275-0.45s0.75,0.15,1.05,0.45
			c0.375,0.375,0.525,0.825,0.45,1.275c-0.075,0.45-0.3,0.9-0.825,1.425c-0.15,0.15-0.375,0.375-0.675,0.525
			c-0.225,0.15-0.525,0.3-0.825,0.45l-0.525-0.525c0.3-0.15,0.6-0.225,0.9-0.375c0.225-0.15,0.525-0.3,0.675-0.525
			c0.3-0.3,0.525-0.6,0.525-0.9c0.075-0.225,0-0.525-0.225-0.75c-0.225-0.15-0.375-0.3-0.675-0.3
			c-0.225,0.075-0.45,0.15-0.825,0.375l-0.375,0.225c-0.45,0.375-0.9,0.525-1.2,0.525c-0.375,0-0.675-0.15-0.975-0.45
			c-0.375-0.375-0.525-0.75-0.45-1.2c0-0.45,0.3-0.9,0.675-1.275c0.225-0.225,0.45-0.375,0.675-0.525
			C-423.395,646.71-423.17,646.56-422.87,646.41z"/>
		<path style="fill:#3B3C3D;" d="M-421.97,645.21l0.525-0.525l3.9,3.975l-0.525,0.525L-421.97,645.21z"/>
		<path style="fill:#3B3C3D;" d="M-414.32,644.385l-1.05-1.125l-0.825,0.9l-0.45-0.45l1.35-1.35l1.725,1.65
			c-0.075,0.375-0.225,0.675-0.375,1.05c-0.15,0.3-0.375,0.6-0.675,0.9c-0.6,0.6-1.275,0.9-2.025,0.9
			c-0.675-0.075-1.35-0.375-1.95-1.05c-0.675-0.6-0.975-1.275-0.975-2.025c0-0.675,0.3-1.35,0.9-1.95
			c0.225-0.225,0.525-0.45,0.825-0.6c0.3-0.225,0.6-0.3,0.9-0.375l0.6,0.525c-0.375,0.075-0.75,0.15-1.05,0.3
			c-0.3,0.075-0.6,0.3-0.825,0.525c-0.45,0.525-0.675,0.975-0.675,1.5s0.3,1.05,0.825,1.575c0.525,0.525,1.05,0.825,1.575,0.825
			c0.525,0.075,0.975-0.15,1.5-0.675c0.15-0.15,0.3-0.375,0.45-0.525C-414.47,644.685-414.32,644.535-414.32,644.385
			L-414.32,644.385z"/>
		<path style="fill:#3B3C3D;" d="M-416.12,639.435l0.675-0.675l5.025,1.575l-3.225-3.3l0.45-0.525l3.975,3.975l-0.75,0.675
			l-5.025-1.575l3.3,3.3l-0.525,0.525L-416.12,639.435L-416.12,639.435z"/>
		<path style="fill:#3B3C3D;" d="M-410.27,634.635l1.275,2.7l1.425-1.425L-410.27,634.635L-410.27,634.635z M-411.095,634.41
			l0.6-0.6l5.475,2.475l-0.6,0.6l-1.35-0.675l-1.8,1.725l0.675,1.425l-0.6,0.525L-411.095,634.41L-411.095,634.41z"/>
		<path style="fill:#3B3C3D;" d="M-409.37,632.76l3.375-3.3l0.45,0.45l-1.425,1.35l3.45,3.525l-0.525,0.525l-3.45-3.525
			l-1.425,1.425L-409.37,632.76z"/>
		<path style="fill:#3B3C3D;" d="M-405.545,629.01l0.525-0.6l2.4,2.4c0.375,0.45,0.75,0.675,1.125,0.75c0.3,0,0.675-0.15,1.05-0.525
			c0.3-0.3,0.45-0.675,0.45-0.975c-0.075-0.375-0.3-0.75-0.675-1.125l-2.4-2.4l0.525-0.525l2.475,2.4
			c0.525,0.525,0.75,1.05,0.75,1.575s-0.225,1.05-0.75,1.5c-0.45,0.525-0.975,0.75-1.5,0.75c-0.525,0-1.05-0.3-1.575-0.825
			L-405.545,629.01L-405.545,629.01z"/>
		<path style="fill:#3B3C3D;" d="M-397.595,625.26c0.15-0.075,0.375-0.15,0.6-0.15c0.225,0.075,0.525,0.15,0.825,0.225l1.65,0.525
			l-0.6,0.6l-1.5-0.525c-0.375-0.15-0.675-0.15-0.9-0.15c-0.225,0.075-0.375,0.15-0.6,0.375l-0.6,0.6l1.65,1.65l-0.525,0.525
			l-3.9-3.975l1.2-1.2c0.45-0.45,0.9-0.675,1.275-0.675c0.375-0.075,0.825,0.15,1.2,0.525c0.225,0.225,0.375,0.525,0.45,0.75
			C-397.37,624.661-397.445,624.96-397.595,625.26L-397.595,625.26z M-400.52,624.885l1.35,1.425l0.675-0.675
			c0.3-0.225,0.375-0.525,0.45-0.75c0-0.225-0.15-0.525-0.375-0.75c-0.225-0.225-0.45-0.3-0.675-0.3c-0.3,0-0.525,0.15-0.75,0.375
			L-400.52,624.885L-400.52,624.885z"/>
		<path style="fill:#3B3C3D;" d="M-397.745,621.21l2.475-2.475l0.45,0.45l-1.95,1.95l1.125,1.2l1.95-1.875l0.45,0.45l-1.95,1.875
			l1.425,1.425l2.025-1.95l0.45,0.45l-2.55,2.475L-397.745,621.21z"/>
		<path style="fill:#3B3C3D;" d="M-418.295,653.91l0.75-0.675l5.025,1.575l-3.3-3.3l0.525-0.525l3.9,3.975l-0.75,0.675l-5.025-1.575
			l3.3,3.3l-0.525,0.525L-418.295,653.91z"/>
		<path style="fill:#3B3C3D;" d="M-412.295,648.735c-0.375,0.375-0.525,0.825-0.45,1.35c0,0.45,0.3,0.975,0.825,1.5
			c0.45,0.525,0.975,0.75,1.5,0.825c0.525,0.075,0.975-0.075,1.35-0.45c0.375-0.375,0.525-0.825,0.45-1.35
			c0-0.525-0.3-1.05-0.825-1.575c-0.45-0.45-0.975-0.75-1.5-0.825C-411.47,648.135-411.92,648.285-412.295,648.735L-412.295,648.735
			z M-412.67,648.285c0.525-0.6,1.125-0.825,1.875-0.75c0.675,0,1.35,0.375,1.95,0.975c0.6,0.6,0.975,1.275,0.975,1.95
			c0.075,0.75-0.225,1.35-0.75,1.875c-0.6,0.6-1.2,0.825-1.875,0.825c-0.75-0.075-1.425-0.375-2.025-1.05
			c-0.6-0.6-0.9-1.275-0.975-1.95C-413.495,649.41-413.27,648.81-412.67,648.285L-412.67,648.285z"/>
		<path style="fill:#3B3C3D;" d="M-410.495,646.26l3.3-3.3l0.45,0.45l-1.35,1.35l3.45,3.525l-0.525,0.525l-3.525-3.525l-1.35,1.425
			L-410.495,646.26L-410.495,646.26z"/>
		<path style="fill:#3B3C3D;" d="M-399.995,643.635l-5.4-2.475l0.525-0.525l4.575,2.1l-2.025-4.575l0.525-0.525l2.4,5.4
			L-399.995,643.635z"/>
		<path style="fill:#3B3C3D;" d="M-399.695,636.585l1.2,2.7l1.425-1.425L-399.695,636.585z M-400.52,636.36l0.6-0.6l5.4,2.475
			l-0.525,0.525l-1.425-0.6l-1.725,1.725l0.6,1.35l-0.525,0.6L-400.52,636.36z"/>
		<path style="fill:#3B3C3D;" d="M-397.895,633.735l0.6-0.525l3.45,3.45l1.95-1.875l0.375,0.45l-2.4,2.4L-397.895,633.735
			L-397.895,633.735z"/>
		<path style="fill:#3B3C3D;" d="M-394.82,630.735l0.525-0.525l3.9,3.9l-0.525,0.6L-394.82,630.735L-394.82,630.735z"/>
		<path style="fill:#3B3C3D;" d="M-392.27,629.01l3.075,3.075l0.6-0.6c0.525-0.525,0.825-1.05,0.825-1.575
			c0-0.45-0.225-0.975-0.75-1.5c-0.525-0.525-1.05-0.825-1.575-0.825c-0.45,0-0.975,0.3-1.5,0.825L-392.27,629.01L-392.27,629.01z
			 M-393.245,629.16l1.125-1.125c0.75-0.75,1.5-1.125,2.175-1.2c0.6,0,1.275,0.3,1.95,0.975s1.05,1.35,0.975,2.025
			c-0.075,0.675-0.45,1.425-1.2,2.175l-1.125,1.05L-393.245,629.16L-393.245,629.16z"/>
		<path style="fill:#3B3C3D;" d="M-419.57,667.56l0.525-0.525l2.4,2.4c0.375,0.45,0.75,0.675,1.125,0.675
			c0.375,0.075,0.675-0.075,1.05-0.45c0.3-0.375,0.45-0.675,0.45-1.05c-0.075-0.3-0.3-0.675-0.675-1.125l-2.4-2.4l0.525-0.525
			l2.475,2.475c0.525,0.525,0.75,1.05,0.75,1.575c0,0.45-0.225,0.975-0.75,1.5c-0.45,0.45-0.975,0.75-1.5,0.675
			c-0.525,0-1.05-0.225-1.5-0.75L-419.57,667.56L-419.57,667.56z"/>
		<path style="fill:#3B3C3D;" d="M-415.52,663.585l0.675-0.75l5.025,1.575l-3.225-3.3l0.525-0.525l3.9,3.975l-0.75,0.675l-5.025-1.5
			l3.3,3.3l-0.525,0.45L-415.52,663.585L-415.52,663.585z"/>
		<path style="fill:#3B3C3D;" d="M-411.47,659.535l0.525-0.525l3.45,3.525l1.95-1.95l0.45,0.45l-2.475,2.475L-411.47,659.535
			L-411.47,659.535z"/>
		<path style="fill:#3B3C3D;" d="M-408.47,656.535l2.475-2.475l0.45,0.45l-1.95,1.95l1.2,1.2l1.875-1.875l0.45,0.45l-1.875,1.875
			l1.425,1.425l1.95-2.025l0.45,0.45l-2.55,2.55L-408.47,656.535z"/>
		<path style="fill:#3B3C3D;" d="M-402.545,650.91l0.525,0.525c-0.3,0.15-0.525,0.225-0.75,0.375c-0.225,0.15-0.45,0.3-0.6,0.45
			c-0.3,0.3-0.45,0.6-0.525,0.825c-0.075,0.3,0,0.525,0.225,0.75c0.15,0.15,0.375,0.225,0.525,0.225c0.225,0,0.525-0.15,0.825-0.375
			l0.375-0.225c0.525-0.375,0.9-0.525,1.35-0.525c0.375,0,0.675,0.15,0.975,0.525c0.45,0.375,0.6,0.75,0.525,1.2
			c-0.075,0.45-0.375,0.975-0.825,1.425c-0.225,0.225-0.45,0.375-0.675,0.525c-0.3,0.225-0.525,0.375-0.825,0.45l-0.6-0.525
			c0.375-0.075,0.675-0.225,0.975-0.375c0.225-0.15,0.45-0.3,0.675-0.45c0.3-0.375,0.45-0.6,0.525-0.9
			c0.075-0.3-0.075-0.525-0.225-0.75c-0.225-0.225-0.45-0.3-0.675-0.3s-0.525,0.15-0.825,0.3l-0.375,0.3
			c-0.45,0.3-0.9,0.45-1.275,0.45c-0.3,0-0.675-0.15-0.975-0.45c-0.3-0.3-0.45-0.75-0.45-1.125c0.075-0.45,0.3-0.9,0.75-1.35
			c0.225-0.15,0.375-0.375,0.6-0.525C-403.07,651.21-402.77,651.06-402.545,650.91L-402.545,650.91z"/>
		<path style="fill:#3B3C3D;" d="M-399.095,647.535l0.525,0.525c-0.3,0.075-0.6,0.225-0.825,0.375
			c-0.225,0.075-0.375,0.225-0.525,0.45c-0.3,0.225-0.525,0.525-0.525,0.825c-0.075,0.225,0,0.525,0.225,0.675
			c0.15,0.225,0.375,0.3,0.525,0.3c0.225-0.075,0.525-0.15,0.825-0.45l0.375-0.225c0.525-0.3,0.9-0.45,1.275-0.45
			c0.375,0,0.75,0.15,1.05,0.45c0.375,0.375,0.6,0.825,0.525,1.275c-0.075,0.45-0.375,0.9-0.825,1.425
			c-0.225,0.15-0.45,0.375-0.675,0.525c-0.3,0.15-0.525,0.3-0.825,0.45l-0.6-0.525c0.375-0.15,0.675-0.225,0.9-0.375
			c0.3-0.15,0.525-0.3,0.75-0.525c0.3-0.3,0.45-0.6,0.525-0.9c0.075-0.225-0.075-0.525-0.3-0.75c-0.15-0.15-0.375-0.3-0.6-0.3
			c-0.225,0.075-0.525,0.15-0.825,0.375l-0.375,0.225c-0.525,0.375-0.9,0.525-1.275,0.525c-0.3,0-0.675-0.15-0.975-0.45
			c-0.3-0.375-0.45-0.75-0.45-1.2c0.075-0.45,0.3-0.9,0.75-1.275c0.15-0.225,0.375-0.375,0.6-0.525
			C-399.62,647.835-399.32,647.685-399.095,647.535L-399.095,647.535z"/>
		<path style="fill:#3B3C3D;" d="M-393.92,642.435l0.525,0.525c-0.3,0.075-0.6,0.225-0.825,0.3c-0.225,0.15-0.375,0.3-0.6,0.45
			c-0.225,0.3-0.45,0.6-0.45,0.825c-0.075,0.3,0,0.525,0.225,0.75c0.15,0.15,0.375,0.225,0.525,0.225c0.225,0,0.45-0.15,0.825-0.375
			l0.375-0.225c0.525-0.3,0.9-0.525,1.275-0.45c0.375,0,0.75,0.15,1.05,0.45c0.375,0.375,0.525,0.825,0.525,1.275
			c-0.075,0.45-0.375,0.9-0.825,1.425c-0.225,0.15-0.45,0.3-0.675,0.525c-0.3,0.15-0.525,0.3-0.9,0.45l-0.525-0.6
			c0.375-0.075,0.675-0.15,0.9-0.3c0.3-0.15,0.525-0.375,0.75-0.525c0.3-0.3,0.45-0.6,0.525-0.9c0-0.3-0.075-0.525-0.3-0.75
			c-0.15-0.225-0.375-0.3-0.6-0.3c-0.225,0-0.525,0.15-0.825,0.375l-0.375,0.225c-0.525,0.3-0.9,0.45-1.275,0.525
			c-0.3,0-0.675-0.15-0.975-0.45c-0.3-0.375-0.45-0.75-0.45-1.2c0.075-0.45,0.3-0.9,0.75-1.35c0.15-0.15,0.375-0.3,0.6-0.45
			C-394.445,642.66-394.22,642.51-393.92,642.435L-393.92,642.435z"/>
		<path style="fill:#3B3C3D;" d="M-392.945,641.235l0.525-0.525l3.9,3.9l-0.525,0.6L-392.945,641.235L-392.945,641.235z"/>
		<path style="fill:#3B3C3D;" d="M-385.294,640.335l-1.05-1.05l-0.9,0.9l-0.45-0.45l1.425-1.425l1.65,1.725
			c-0.075,0.375-0.15,0.675-0.3,0.975c-0.225,0.375-0.45,0.675-0.75,0.9c-0.6,0.675-1.275,0.975-1.95,0.9
			c-0.675,0-1.35-0.3-2.025-0.975c-0.6-0.6-0.975-1.275-0.975-2.025c0-0.675,0.3-1.35,0.9-1.95c0.3-0.3,0.525-0.45,0.825-0.675
			c0.3-0.15,0.6-0.3,0.975-0.3l0.525,0.525c-0.375,0.075-0.675,0.15-0.975,0.225c-0.3,0.15-0.6,0.375-0.825,0.6
			c-0.525,0.45-0.75,0.975-0.75,1.5c0.075,0.525,0.375,1.05,0.9,1.575c0.525,0.525,1.05,0.825,1.5,0.825
			c0.525,0,1.05-0.225,1.5-0.675c0.225-0.225,0.375-0.375,0.45-0.525C-385.445,640.71-385.37,640.56-385.294,640.335
			L-385.294,640.335z"/>
		<path style="fill:#3B3C3D;" d="M-387.169,635.46l0.75-0.675l5.025,1.575l-3.3-3.3l0.525-0.525l3.9,3.9l-0.675,0.75l-5.1-1.575
			l3.3,3.3l-0.525,0.525L-387.169,635.46z"/>
		<path style="fill:#3B3C3D;" d="M-383.119,631.485l2.475-2.475l0.45,0.45l-1.95,1.95l1.2,1.125l1.875-1.875l0.45,0.45l-1.875,1.875
			l1.425,1.425l1.95-1.95l0.45,0.45l-2.55,2.475L-383.119,631.485z"/>
		<path style="fill:#3B3C3D;" d="M-378.694,627.96l3,3.075l0.675-0.6c0.525-0.6,0.825-1.125,0.825-1.575
			c0-0.525-0.225-1.05-0.75-1.575c-0.525-0.525-1.05-0.75-1.575-0.75c-0.45,0-0.975,0.225-1.575,0.825L-378.694,627.96
			L-378.694,627.96z M-379.669,628.035l1.125-1.05c0.75-0.75,1.425-1.2,2.1-1.2c0.675-0.075,1.35,0.3,2.025,0.975
			c0.675,0.675,0.975,1.35,0.975,2.025c-0.075,0.675-0.45,1.35-1.2,2.175l-1.125,1.05L-379.669,628.035L-379.669,628.035z"/>
		<path style="fill:#3B3C3D;" d="M-605.794,721.036l0.75-0.675l5.025,1.575l-3.3-3.3l0.525-0.525l3.9,3.975l-0.675,0.675
			l-5.025-1.575l3.225,3.3l-0.525,0.525L-605.794,721.036L-605.794,721.036z"/>
		<path style="fill:#3B3C3D;" d="M-599.269,717.286c-0.3,0.225-0.375,0.525-0.3,0.9c0,0.375,0.225,0.675,0.6,1.05
			c0.3,0.375,0.675,0.6,1.05,0.6c0.3,0.075,0.675,0,0.9-0.3c0.3-0.225,0.375-0.525,0.3-0.9c0-0.375-0.225-0.75-0.6-1.05
			c-0.3-0.375-0.675-0.6-1.05-0.6C-598.744,716.91-599.044,716.986-599.269,717.286L-599.269,717.286z M-599.719,716.836
			c0.45-0.45,0.9-0.6,1.425-0.6c0.525,0.075,1.05,0.3,1.5,0.825c0.525,0.45,0.75,0.975,0.75,1.5c0.075,0.525-0.15,0.975-0.6,1.425
			c-0.375,0.375-0.825,0.6-1.35,0.525c-0.525,0-1.05-0.3-1.5-0.75c-0.525-0.525-0.75-0.975-0.825-1.5
			C-600.319,717.736-600.094,717.286-599.719,716.836L-599.719,716.836z"/>
		<path style="fill:#3B3C3D;" d="M-597.769,713.461l0.825,0.825l0.975-0.975l0.375,0.375l-0.975,0.975l1.575,1.65
			c0.225,0.225,0.45,0.3,0.525,0.375c0.15,0,0.3-0.15,0.525-0.3l0.525-0.525l0.375,0.375l-0.45,0.525
			c-0.45,0.375-0.75,0.525-1.05,0.525c-0.225,0-0.6-0.15-0.975-0.525l-1.575-1.575l-0.375,0.3l-0.375-0.375l0.375-0.3l-0.825-0.9
			L-597.769,713.461L-597.769,713.461z"/>
		<path style="fill:#3B3C3D;" d="M-593.944,711.286l0.525-0.525l3.375,1.575l-1.5-3.375l0.45-0.525l1.875,4.05l-0.675,0.675
			L-593.944,711.286L-593.944,711.286z"/>
		<path style="fill:#3B3C3D;" d="M-587.569,707.911c-0.375,0.375-0.6,0.675-0.675,0.975c-0.075,0.225,0,0.45,0.225,0.675
			c0.15,0.15,0.375,0.225,0.6,0.225c0.15,0,0.375-0.15,0.6-0.3c0.225-0.3,0.375-0.6,0.375-0.9c-0.075-0.375-0.225-0.75-0.525-1.05
			l-0.15-0.075L-587.569,707.911L-587.569,707.911z M-586.819,706.711l1.725,1.725l-0.525,0.45l-0.45-0.45
			c0.075,0.3,0.075,0.6,0,0.825c-0.075,0.3-0.225,0.525-0.525,0.75c-0.3,0.3-0.6,0.45-0.975,0.45c-0.3,0-0.675-0.15-0.9-0.375
			c-0.375-0.375-0.525-0.75-0.45-1.125c0.075-0.375,0.3-0.825,0.75-1.2l0.675-0.675v-0.075c-0.225-0.225-0.525-0.3-0.75-0.3
			c-0.3,0-0.525,0.15-0.825,0.45c-0.15,0.15-0.3,0.3-0.45,0.525c-0.075,0.225-0.225,0.375-0.225,0.675l-0.45-0.45
			c0.075-0.3,0.225-0.525,0.375-0.675c0.075-0.225,0.225-0.375,0.375-0.6c0.45-0.375,0.9-0.6,1.35-0.6
			C-587.719,706.035-587.269,706.26-586.819,706.711L-586.819,706.711z"/>
		<path style="fill:#3B3C3D;" d="M-588.169,703.335l0.45-0.525l4.05,4.125l-0.45,0.525L-588.169,703.335z"/>
		<path style="fill:#3B3C3D;" d="M-585.544,702.96l0.45-0.45l3,2.925l-0.525,0.525L-585.544,702.96z M-586.669,701.835l0.45-0.45
			l0.6,0.6l-0.45,0.45L-586.669,701.835z"/>
		<path style="fill:#3B3C3D;" d="M-581.644,700.035l-1.575-1.65l0.45-0.45l4.125,4.125l-0.525,0.45l-0.45-0.45
			c0.075,0.3,0.075,0.6,0,0.825c-0.075,0.225-0.225,0.45-0.45,0.675c-0.3,0.375-0.75,0.525-1.275,0.45
			c-0.525-0.075-0.975-0.375-1.425-0.825s-0.75-0.975-0.825-1.425c0-0.525,0.15-0.975,0.45-1.35c0.225-0.225,0.45-0.3,0.75-0.375
			C-582.169,699.96-581.944,699.96-581.644,700.035L-581.644,700.035z M-582.319,702.66c0.375,0.375,0.75,0.6,1.05,0.675
			c0.375,0.075,0.675-0.075,0.975-0.3c0.225-0.3,0.3-0.6,0.3-0.9c-0.075-0.375-0.3-0.75-0.6-1.05c-0.375-0.375-0.75-0.6-1.125-0.675
			c-0.3-0.075-0.6,0.075-0.9,0.3c-0.225,0.3-0.375,0.6-0.3,0.9C-582.844,701.985-582.619,702.36-582.319,702.66z"/>
		<path style="fill:#3B3C3D;" d="M-578.494,693.735l0.375,0.375l-0.45,0.525c-0.225,0.15-0.3,0.3-0.3,0.45s0.15,0.3,0.3,0.45
			l0.225,0.3l0.825-0.825l0.375,0.375l-0.825,0.825l2.625,2.55l-0.525,0.525l-2.55-2.625l-0.45,0.45l-0.375-0.375l0.45-0.45
			l-0.225-0.225c-0.3-0.3-0.45-0.6-0.45-0.9c0-0.3,0.15-0.6,0.45-0.975L-578.494,693.735L-578.494,693.735z"/>
		<path style="fill:#3B3C3D;" d="M-575.494,693.66c-0.225,0.3-0.375,0.6-0.3,0.975c0.075,0.3,0.225,0.675,0.6,1.05
			s0.675,0.525,1.05,0.6c0.375,0.075,0.675-0.075,0.9-0.3c0.3-0.225,0.375-0.6,0.3-0.9c0-0.375-0.225-0.75-0.6-1.05
			c-0.3-0.375-0.675-0.6-1.05-0.675C-574.894,693.36-575.194,693.435-575.494,693.66L-575.494,693.66z M-575.869,693.285
			c0.375-0.45,0.9-0.6,1.35-0.6c0.525,0.075,1.05,0.3,1.5,0.825c0.525,0.45,0.75,0.975,0.825,1.5c0,0.525-0.225,0.975-0.6,1.35
			c-0.45,0.45-0.9,0.675-1.425,0.6c-0.525,0-1.05-0.3-1.5-0.75c-0.45-0.525-0.75-0.975-0.75-1.5
			C-576.544,694.185-576.319,693.735-575.869,693.285L-575.869,693.285z"/>
		<path style="fill:#3B3C3D;" d="M-571.519,689.985c-0.075,0-0.15,0-0.225,0.075s-0.15,0.15-0.225,0.225
			c-0.3,0.225-0.375,0.525-0.375,0.9c0,0.3,0.225,0.6,0.525,0.975l1.575,1.575l-0.525,0.45l-2.925-2.925l0.525-0.525l0.45,0.45
			c-0.075-0.3-0.075-0.525,0-0.75c0.075-0.3,0.225-0.525,0.45-0.75c0.075-0.075,0.075-0.075,0.15-0.075
			c0-0.075,0.075-0.075,0.15-0.15L-571.519,689.985L-571.519,689.985z"/>
		<path style="fill:#3B3C3D;" d="M-566.719,689.31l1.575,1.575l-0.525,0.525l-4.05-4.125l0.525-0.45l0.45,0.45
			c-0.075-0.3-0.075-0.525,0-0.825c0-0.225,0.15-0.45,0.375-0.675c0.375-0.3,0.825-0.45,1.35-0.45
			c0.45,0.075,0.975,0.375,1.425,0.825s0.75,0.975,0.75,1.5c0.075,0.45-0.075,0.9-0.45,1.275c-0.15,0.225-0.45,0.375-0.675,0.45
			C-566.194,689.385-566.419,689.385-566.719,689.31L-566.719,689.31z M-566.119,686.685c-0.3-0.375-0.675-0.6-1.05-0.675
			c-0.3,0-0.6,0.075-0.9,0.3c-0.225,0.3-0.375,0.6-0.3,0.9c0.075,0.375,0.225,0.75,0.6,1.125c0.375,0.3,0.75,0.525,1.05,0.6
			c0.375,0.075,0.675-0.075,0.9-0.3c0.3-0.225,0.375-0.525,0.375-0.9C-565.52,687.36-565.745,686.985-566.119,686.685z"/>
		<path style="fill:#3B3C3D;" d="M-563.419,683.985c-0.45,0.45-0.675,0.75-0.675,0.975c-0.075,0.225,0,0.45,0.225,0.675
			c0.15,0.15,0.3,0.3,0.525,0.225c0.225,0,0.45-0.075,0.675-0.3s0.375-0.525,0.3-0.9c0-0.375-0.15-0.675-0.45-1.05l-0.15-0.075
			L-563.419,683.985L-563.419,683.985z M-562.669,682.86l1.65,1.65l-0.45,0.525l-0.45-0.45c0.075,0.3,0.075,0.525,0,0.825
			c-0.075,0.225-0.3,0.45-0.525,0.675c-0.3,0.3-0.6,0.525-0.975,0.525s-0.675-0.15-0.9-0.45c-0.375-0.3-0.525-0.675-0.45-1.05
			c0.075-0.45,0.3-0.825,0.75-1.275l0.675-0.675l-0.075-0.075c-0.15-0.225-0.45-0.3-0.675-0.3c-0.3,0.075-0.6,0.15-0.825,0.45
			c-0.15,0.15-0.3,0.375-0.45,0.525c-0.075,0.225-0.225,0.45-0.3,0.675l-0.45-0.45c0.15-0.225,0.3-0.45,0.375-0.675
			c0.15-0.225,0.3-0.375,0.45-0.525c0.45-0.45,0.9-0.675,1.275-0.6C-563.57,682.185-563.12,682.41-562.669,682.86L-562.669,682.86z"
			/>
		<path style="fill:#3B3C3D;" d="M-558.469,682.635c0.225,0.45,0.3,0.825,0.3,1.05c-0.075,0.225-0.15,0.45-0.375,0.675l-0.375,0.375
			l-0.45-0.375l0.3-0.3c0.15-0.15,0.225-0.225,0.225-0.375c0-0.15-0.075-0.375-0.225-0.75l-0.15-0.3l-4.05-1.725l0.525-0.525
			l3.225,1.425l-1.35-3.225l0.45-0.525L-558.469,682.635L-558.469,682.635z"/>
		<path style="fill:#3B3C3D;" d="M-556.819,675.66c-0.15-0.3-0.15-0.6-0.075-0.9c0.075-0.3,0.225-0.525,0.45-0.75
			c0.3-0.3,0.675-0.45,1.05-0.375c0.375,0.075,0.75,0.3,1.125,0.675l1.8,1.8l-0.525,0.45l-1.725-1.725
			c-0.3-0.3-0.525-0.45-0.75-0.525c-0.225,0-0.45,0.075-0.675,0.3c-0.3,0.225-0.375,0.525-0.375,0.825c0,0.3,0.15,0.6,0.45,0.9
			l1.65,1.65l-0.45,0.525l-1.8-1.8c-0.225-0.3-0.525-0.45-0.75-0.45c-0.225-0.075-0.45,0-0.675,0.225
			c-0.225,0.225-0.375,0.525-0.3,0.825c0,0.3,0.15,0.6,0.45,0.9l1.65,1.725l-0.525,0.45l-2.925-3l0.525-0.45l0.45,0.45
			c-0.075-0.3-0.075-0.525,0-0.75c0.075-0.3,0.225-0.525,0.375-0.75c0.225-0.15,0.45-0.3,0.75-0.375
			C-557.419,675.51-557.12,675.585-556.819,675.66L-556.819,675.66z"/>
		<path style="fill:#3B3C3D;" d="M-550.519,671.01l0.225,0.225l-2.25,2.25c0.375,0.3,0.675,0.45,1.05,0.45s0.675-0.15,1.05-0.45
			c0.15-0.225,0.3-0.45,0.45-0.6c0.15-0.225,0.225-0.525,0.3-0.75l0.45,0.45c-0.075,0.225-0.225,0.45-0.375,0.675
			c-0.15,0.225-0.3,0.45-0.45,0.675c-0.525,0.45-0.975,0.675-1.575,0.675c-0.525,0-1.05-0.225-1.5-0.75
			c-0.45-0.45-0.75-0.975-0.75-1.5s0.225-1.05,0.6-1.5c0.45-0.375,0.9-0.6,1.35-0.525
			C-551.419,670.335-550.969,670.56-550.519,671.01L-550.519,671.01z M-551.194,671.385c-0.225-0.3-0.525-0.45-0.825-0.45
			c-0.3,0-0.6,0.075-0.825,0.375c-0.3,0.225-0.45,0.525-0.45,0.825c0,0.3,0.15,0.675,0.375,0.975L-551.194,671.385L-551.194,671.385
			z"/>
		<path style="fill:#3B3C3D;" d="M-547.444,667.635l1.725,1.725l-0.45,0.525l-1.8-1.8c-0.225-0.3-0.525-0.45-0.75-0.45
			s-0.45,0.075-0.675,0.3c-0.3,0.225-0.45,0.525-0.375,0.825c0,0.3,0.15,0.6,0.45,0.9l1.65,1.725l-0.525,0.45l-2.925-2.925
			l0.525-0.525l0.45,0.45c-0.075-0.3-0.075-0.525,0-0.75c0.075-0.3,0.225-0.525,0.375-0.675c0.375-0.375,0.75-0.525,1.125-0.45
			C-548.269,666.96-547.894,667.185-547.444,667.635L-547.444,667.635z"/>
		<path style="fill:#3B3C3D;" d="M-547.969,664.11l0.825,0.9l0.975-1.05l0.375,0.375l-0.975,1.05l1.575,1.575
			c0.225,0.225,0.45,0.375,0.525,0.375c0.15,0,0.3-0.075,0.525-0.3l0.525-0.525l0.375,0.45l-0.45,0.45
			c-0.375,0.375-0.75,0.6-1.05,0.6c-0.225,0-0.6-0.225-0.975-0.525l-1.575-1.65l-0.375,0.375l-0.375-0.375l0.375-0.375l-0.825-0.825
			L-547.969,664.11L-547.969,664.11z"/>
		<path style="fill:#3B3C3D;" d="M-543.769,661.635l0.45-0.45l2.925,2.925l-0.45,0.525L-543.769,661.635z M-544.969,660.51
			l0.525-0.525l0.6,0.6l-0.45,0.525L-544.969,660.51z"/>
		<path style="fill:#3B3C3D;" d="M-538.669,658.86l1.8,1.8l-0.525,0.525l-1.725-1.8c-0.3-0.3-0.525-0.45-0.825-0.45
			c-0.225-0.075-0.45,0.075-0.675,0.225c-0.225,0.3-0.375,0.6-0.375,0.9c0,0.3,0.15,0.6,0.45,0.9l1.65,1.65l-0.45,0.525l-3-3
			l0.525-0.45l0.45,0.45c-0.075-0.3-0.075-0.525,0-0.825c0.075-0.225,0.225-0.45,0.45-0.675c0.3-0.3,0.675-0.45,1.05-0.45
			C-539.494,658.26-539.044,658.485-538.669,658.86z"/>
		<path style="fill:#3B3C3D;" d="M-538.069,653.985l2.25-2.25l0.45,0.45l-1.725,1.725l1.125,1.2l1.575-1.575l0.45,0.45l-1.575,1.575
			l1.875,1.875l-0.525,0.525L-538.069,653.985L-538.069,653.985z"/>
		<path style="fill:#3B3C3D;" d="M-532.669,651.36c-0.3,0.225-0.375,0.525-0.375,0.9c0.075,0.375,0.3,0.675,0.6,1.05
			c0.375,0.375,0.75,0.525,1.125,0.6c0.3,0.075,0.6,0,0.9-0.3c0.225-0.225,0.375-0.525,0.3-0.9c-0.075-0.375-0.225-0.75-0.6-1.05
			c-0.375-0.375-0.675-0.6-1.05-0.6C-532.144,650.985-532.444,651.06-532.669,651.36L-532.669,651.36z M-533.119,650.91
			c0.45-0.45,0.9-0.6,1.425-0.6c0.525,0.075,0.975,0.3,1.5,0.825c0.45,0.45,0.75,0.975,0.75,1.5c0.075,0.525-0.15,0.975-0.6,1.425
			c-0.375,0.375-0.9,0.6-1.35,0.525c-0.525,0-1.05-0.3-1.5-0.75c-0.525-0.525-0.75-0.975-0.825-1.5
			C-533.719,651.81-533.494,651.36-533.119,650.91L-533.119,650.91z"/>
		<path style="fill:#3B3C3D;" d="M-528.694,647.61c-0.075,0-0.15,0.075-0.225,0.075c-0.075,0.075-0.15,0.15-0.225,0.225
			c-0.3,0.225-0.45,0.525-0.375,0.9c0,0.3,0.15,0.6,0.525,0.975l1.5,1.575l-0.45,0.45l-2.925-2.925l0.45-0.525l0.45,0.45
			c-0.075-0.225-0.075-0.525,0-0.75c0.075-0.3,0.3-0.525,0.525-0.75l0.075-0.075c0.075-0.075,0.15-0.075,0.15-0.15L-528.694,647.61
			L-528.694,647.61z"/>
		<path style="fill:#3B3C3D;" d="M-524.87,645.585l0.225,0.225l-2.25,2.25c0.375,0.3,0.75,0.45,1.125,0.45
			c0.3,0,0.675-0.15,0.975-0.45c0.225-0.225,0.375-0.45,0.45-0.675c0.15-0.15,0.3-0.45,0.375-0.675l0.45,0.45
			c-0.15,0.225-0.225,0.45-0.375,0.675c-0.15,0.225-0.3,0.45-0.525,0.6c-0.45,0.525-0.975,0.75-1.5,0.75
			c-0.6,0-1.05-0.225-1.575-0.75c-0.45-0.45-0.675-0.975-0.75-1.5c0-0.525,0.225-1.05,0.675-1.5c0.375-0.375,0.825-0.6,1.35-0.525
			C-525.77,644.91-525.32,645.135-524.87,645.585L-524.87,645.585z M-525.47,645.96c-0.3-0.3-0.6-0.45-0.9-0.45
			c-0.3,0-0.525,0.075-0.825,0.3c-0.225,0.3-0.375,0.6-0.375,0.9c0,0.3,0.075,0.675,0.375,0.975L-525.47,645.96L-525.47,645.96z"/>
		<path style="fill:#3B3C3D;" d="M-525.395,643.41l0.45-0.45l2.925,2.925l-0.45,0.525L-525.395,643.41z M-526.52,642.285l0.45-0.45
			l0.6,0.6l-0.45,0.45L-526.52,642.285z"/>
		<path style="fill:#3B3C3D;" d="M-520.52,641.46c-0.375-0.375-0.675-0.525-1.05-0.6c-0.3-0.075-0.6,0.075-0.9,0.3
			c-0.225,0.3-0.375,0.6-0.3,0.9c0.075,0.375,0.225,0.675,0.6,1.05c0.3,0.375,0.675,0.525,1.05,0.6c0.3,0.075,0.6-0.075,0.9-0.3
			c0.225-0.3,0.3-0.6,0.3-0.9C-519.995,642.135-520.145,641.835-520.52,641.46L-520.52,641.46z M-518.87,642.135
			c0.45,0.525,0.75,0.975,0.75,1.425c0,0.525-0.225,0.975-0.675,1.425c-0.15,0.15-0.3,0.3-0.525,0.45
			c-0.15,0.075-0.375,0.225-0.525,0.3l-0.45-0.45c0.15-0.075,0.375-0.15,0.525-0.3c0.225-0.075,0.375-0.225,0.525-0.3
			c0.3-0.375,0.45-0.675,0.45-0.975c0-0.375-0.15-0.675-0.525-0.975l-0.225-0.3c0.075,0.3,0.075,0.525,0,0.825
			c-0.075,0.225-0.225,0.45-0.45,0.675c-0.375,0.375-0.75,0.525-1.275,0.45c-0.525-0.075-0.975-0.3-1.425-0.75
			c-0.45-0.525-0.675-0.975-0.75-1.5c-0.075-0.45,0.075-0.9,0.45-1.275c0.225-0.225,0.45-0.3,0.675-0.375
			c0.3-0.075,0.525-0.075,0.825,0l-0.45-0.45l0.45-0.525L-518.87,642.135L-518.87,642.135z"/>
		<path style="fill:#3B3C3D;" d="M-516.845,637.26l1.8,1.8l-0.525,0.45l-1.725-1.725c-0.3-0.3-0.525-0.45-0.825-0.45
			c-0.225-0.075-0.45,0-0.675,0.225c-0.225,0.3-0.375,0.6-0.375,0.9c0,0.3,0.15,0.6,0.45,0.9l1.65,1.65l-0.45,0.525l-3-3l0.525-0.45
			l0.45,0.45c-0.075-0.3-0.075-0.6,0-0.825c0.075-0.225,0.225-0.45,0.45-0.675c0.3-0.3,0.675-0.45,1.05-0.45
			C-517.669,636.66-517.219,636.885-516.845,637.26L-516.845,637.26z"/>
		<path style="fill:#3B3C3D;" d="M-516.245,632.385l2.475-2.475l0.45,0.45l-1.95,1.95l1.125,1.2l1.95-1.875l0.375,0.45l-1.875,1.875
			l1.425,1.425l2.025-2.025l0.45,0.45l-2.55,2.55L-516.245,632.385L-516.245,632.385z"/>
		<path style="fill:#3B3C3D;" d="M-509.419,627.585l0.375,2.475l2.625,0.45l-0.525,0.525l-2.025-0.3l0.3,2.025l-0.6,0.6l-0.375-2.7
			l-2.475-0.375l0.6-0.6l1.8,0.3l-0.225-1.8L-509.419,627.585L-509.419,627.585z"/>
		<path style="fill:#3B3C3D;" d="M-506.494,624.96l0.45,0.45c-0.225,0.075-0.375,0.15-0.6,0.225c-0.15,0.075-0.3,0.225-0.45,0.375
			c-0.3,0.3-0.45,0.6-0.45,0.975s0.225,0.75,0.6,1.125c0.3,0.375,0.675,0.6,1.05,0.6c0.375,0,0.75-0.15,1.05-0.45
			c0.15-0.15,0.3-0.3,0.375-0.45c0.075-0.15,0.15-0.375,0.225-0.6l0.45,0.45c-0.075,0.225-0.15,0.375-0.3,0.6
			c-0.075,0.15-0.225,0.3-0.375,0.45c-0.45,0.45-0.975,0.675-1.5,0.675c-0.525,0-1.05-0.3-1.5-0.75
			c-0.525-0.45-0.75-0.975-0.75-1.575c0-0.525,0.225-0.975,0.675-1.425c0.15-0.15,0.3-0.3,0.525-0.45
			C-506.87,625.11-506.719,625.035-506.494,624.96L-506.494,624.96z"/>
		<path style="fill:#3B3C3D;" d="M-502.144,622.71l1.8,1.8l-0.525,0.45l-1.725-1.725c-0.3-0.3-0.525-0.45-0.825-0.525
			c-0.225,0-0.45,0.075-0.675,0.3c-0.225,0.3-0.375,0.525-0.375,0.9c0,0.3,0.15,0.6,0.45,0.9l1.65,1.65l-0.45,0.525l-4.125-4.125
			l0.525-0.525l1.575,1.65c-0.075-0.3-0.075-0.6,0-0.825c0.075-0.225,0.225-0.45,0.45-0.675c0.3-0.3,0.675-0.45,1.05-0.45
			C-502.894,622.11-502.519,622.335-502.144,622.71L-502.144,622.71z"/>
		<path style="fill:#3B3C3D;" d="M-499.519,620.685c-0.375,0.45-0.6,0.75-0.675,0.975c-0.075,0.225,0,0.45,0.225,0.675
			c0.15,0.15,0.375,0.225,0.6,0.225c0.225,0,0.375-0.075,0.6-0.3c0.3-0.225,0.375-0.525,0.375-0.9s-0.225-0.675-0.525-1.05
			l-0.075-0.075L-499.519,620.685L-499.519,620.685z M-498.769,619.56l1.725,1.65l-0.525,0.525l-0.45-0.45
			c0.075,0.3,0.075,0.525,0,0.825c-0.075,0.225-0.225,0.45-0.45,0.675c-0.3,0.3-0.675,0.45-0.975,0.525
			c-0.375,0-0.675-0.15-0.975-0.45c-0.3-0.375-0.45-0.675-0.45-1.125c0.075-0.375,0.375-0.75,0.75-1.2l0.75-0.675l-0.075-0.075
			c-0.225-0.225-0.45-0.3-0.75-0.3c-0.225,0.075-0.525,0.15-0.825,0.45c-0.15,0.15-0.3,0.375-0.375,0.525
			c-0.15,0.225-0.225,0.45-0.3,0.675l-0.45-0.45c0.075-0.225,0.225-0.45,0.375-0.675c0.15-0.225,0.3-0.375,0.45-0.525
			c0.375-0.45,0.825-0.675,1.275-0.6C-499.595,618.885-499.145,619.11-498.769,619.56L-498.769,619.56z"/>
		<path style="fill:#3B3C3D;" d="M-495.394,616.035l1.8,1.8l-0.45,0.45l-1.8-1.8c-0.3-0.225-0.525-0.45-0.75-0.45
			c-0.3,0-0.525,0.075-0.75,0.3c-0.225,0.225-0.375,0.525-0.375,0.825c0.075,0.375,0.225,0.675,0.45,0.975l1.725,1.65l-0.525,0.45
			l-2.925-2.925l0.45-0.525l0.45,0.45c0-0.225,0-0.525,0.075-0.75c0.075-0.3,0.15-0.525,0.375-0.675
			c0.375-0.375,0.75-0.525,1.125-0.45C-496.144,615.36-495.769,615.585-495.394,616.035L-495.394,616.035z"/>
		<path style="fill:#3B3C3D;" d="M-492.169,613.41c-0.375-0.375-0.675-0.6-1.05-0.6c-0.3-0.075-0.6,0-0.9,0.3
			c-0.225,0.225-0.375,0.525-0.3,0.9c0.075,0.3,0.225,0.675,0.6,1.05c0.375,0.3,0.675,0.525,1.05,0.6c0.3,0,0.6-0.075,0.9-0.375
			c0.225-0.225,0.375-0.525,0.3-0.9C-491.644,614.085-491.794,613.71-492.169,613.41L-492.169,613.41z M-490.519,614.085
			c0.45,0.45,0.75,0.975,0.75,1.425s-0.15,0.9-0.675,1.425c-0.15,0.15-0.3,0.3-0.525,0.375c-0.15,0.15-0.3,0.225-0.525,0.375
			l-0.45-0.525c0.225-0.075,0.375-0.15,0.6-0.225c0.15-0.075,0.3-0.225,0.45-0.375c0.3-0.3,0.45-0.6,0.45-0.975
			c0-0.3-0.15-0.6-0.525-0.975l-0.225-0.225c0.075,0.3,0.075,0.525,0,0.75c-0.075,0.225-0.225,0.525-0.45,0.675
			c-0.3,0.375-0.75,0.525-1.275,0.45c-0.45,0-0.975-0.3-1.425-0.75c-0.45-0.45-0.675-0.9-0.75-1.425
			c-0.075-0.525,0.15-0.9,0.45-1.275c0.225-0.225,0.45-0.375,0.75-0.45c0.225-0.075,0.45-0.075,0.75,0l-0.45-0.45l0.525-0.45
			L-490.519,614.085L-490.519,614.085z"/>
		<path style="fill:#3B3C3D;" d="M-488.194,609.285l0.225,0.225l-2.25,2.25c0.375,0.3,0.675,0.45,1.05,0.45s0.675-0.15,1.05-0.45
			c0.15-0.225,0.3-0.375,0.45-0.6c0.15-0.225,0.225-0.45,0.3-0.75l0.45,0.45c-0.075,0.225-0.225,0.525-0.375,0.75
			c-0.075,0.15-0.3,0.375-0.45,0.6c-0.525,0.45-0.975,0.675-1.575,0.675c-0.525,0-1.05-0.225-1.5-0.675
			c-0.45-0.525-0.75-1.05-0.75-1.575c0-0.525,0.225-1.05,0.675-1.5c0.375-0.375,0.825-0.525,1.275-0.525
			C-489.094,608.61-488.644,608.835-488.194,609.285L-488.194,609.285z M-488.869,609.66c-0.225-0.3-0.525-0.45-0.825-0.45
			c-0.3,0-0.6,0.15-0.825,0.375c-0.3,0.225-0.375,0.525-0.45,0.825c0,0.375,0.15,0.675,0.375,0.975L-488.869,609.66L-488.869,609.66
			z"/>
		<path style="fill:#3B3C3D;" d="M-487.069,605.46l0.525-0.525l2.925,3l-0.45,0.45L-487.069,605.46z M-488.194,604.26l0.525-0.45
			l0.6,0.6l-0.525,0.525L-488.194,604.26z"/>
		<path style="fill:#3B3C3D;" d="M-481.894,602.685l1.8,1.8l-0.525,0.45l-1.725-1.725c-0.3-0.3-0.6-0.45-0.825-0.525
			c-0.225,0-0.45,0.075-0.675,0.3c-0.3,0.3-0.375,0.525-0.375,0.9c0,0.3,0.15,0.6,0.45,0.9l1.65,1.65l-0.525,0.525l-2.925-3
			l0.525-0.45l0.45,0.45c-0.075-0.3-0.075-0.6,0-0.825c0.075-0.225,0.225-0.45,0.45-0.675c0.3-0.3,0.675-0.45,1.05-0.45
			C-482.719,602.085-482.344,602.31-481.894,602.685L-481.894,602.685z"/>
		<path style="fill:#3B3C3D;" d="M-481.294,597.81l0.675-0.675l5.025,1.575l-3.225-3.3l0.525-0.525l3.9,3.9l-0.75,0.75l-5.025-1.575
			l3.3,3.3l-0.525,0.525L-481.294,597.81L-481.294,597.81z"/>
		<path style="fill:#3B3C3D;" d="M-472.444,593.685l0.225,0.225l-2.175,2.175c0.3,0.375,0.675,0.525,1.05,0.525
			c0.3,0,0.675-0.15,0.975-0.525c0.225-0.15,0.375-0.375,0.525-0.6c0.075-0.225,0.225-0.45,0.3-0.75l0.45,0.525
			c-0.075,0.225-0.225,0.45-0.375,0.675c-0.15,0.225-0.3,0.45-0.525,0.6c-0.45,0.45-0.975,0.75-1.5,0.675
			c-0.525,0-1.05-0.225-1.5-0.675c-0.525-0.45-0.75-0.975-0.75-1.575c-0.075-0.525,0.15-0.975,0.6-1.425
			c0.375-0.45,0.825-0.6,1.35-0.6C-473.344,593.01-472.894,593.235-472.444,593.685L-472.444,593.685z M-473.044,593.985
			c-0.3-0.225-0.525-0.375-0.9-0.375c-0.3,0-0.525,0.075-0.75,0.3c-0.3,0.3-0.45,0.6-0.45,0.9c0,0.3,0.075,0.6,0.375,0.9
			L-473.044,593.985L-473.044,593.985z"/>
		<path style="fill:#3B3C3D;" d="M-469.969,593.535l1.5,1.575l-0.45,0.525l-4.05-4.125l0.45-0.45l0.45,0.45
			c-0.075-0.3-0.075-0.525,0-0.825c0.075-0.225,0.225-0.45,0.45-0.675c0.375-0.3,0.825-0.45,1.275-0.45
			c0.525,0.075,1.05,0.375,1.5,0.825s0.675,0.975,0.75,1.5c0.075,0.45-0.075,0.9-0.45,1.275c-0.225,0.225-0.45,0.375-0.675,0.45
			C-469.444,593.61-469.744,593.61-469.969,593.535L-469.969,593.535z M-469.369,590.91c-0.375-0.375-0.675-0.6-1.05-0.675
			c-0.375,0-0.675,0.075-0.9,0.3c-0.3,0.3-0.375,0.6-0.3,0.9c0,0.375,0.225,0.75,0.6,1.125c0.375,0.3,0.675,0.525,1.05,0.6
			c0.375,0.075,0.675-0.075,0.9-0.3c0.3-0.225,0.375-0.525,0.3-0.9C-468.844,591.585-468.994,591.285-469.369,590.91z"/>
		<path style="fill:#3B3C3D;" d="M-466.744,588.21c-0.375,0.45-0.6,0.75-0.675,0.975c-0.075,0.225,0,0.45,0.225,0.675
			s0.375,0.3,0.6,0.225c0.225,0,0.45-0.075,0.6-0.3c0.3-0.225,0.375-0.525,0.375-0.9s-0.225-0.675-0.525-1.05l-0.075-0.075
			L-466.744,588.21L-466.744,588.21z M-465.919,587.085l1.65,1.65l-0.45,0.525l-0.45-0.45c0,0.3,0,0.525-0.075,0.825
			c-0.075,0.225-0.225,0.45-0.45,0.675c-0.3,0.3-0.675,0.525-0.975,0.525c-0.375,0-0.675-0.15-0.975-0.45
			c-0.3-0.3-0.45-0.675-0.375-1.05c0-0.45,0.3-0.825,0.75-1.275l0.675-0.675l-0.075-0.075c-0.225-0.225-0.45-0.3-0.75-0.3
			c-0.225,0.075-0.525,0.225-0.75,0.45c-0.225,0.15-0.375,0.375-0.45,0.525c-0.15,0.225-0.225,0.45-0.3,0.675l-0.45-0.45
			c0.15-0.225,0.225-0.45,0.375-0.675c0.15-0.225,0.3-0.375,0.45-0.525c0.45-0.45,0.825-0.675,1.275-0.6
			C-466.819,586.41-466.369,586.635-465.919,587.085L-465.919,587.085z"/>
		<path style="fill:#3B3C3D;" d="M-467.344,583.635l0.525-0.45l4.05,4.125l-0.525,0.45L-467.344,583.635z"/>
		<path style="fill:#3B3C3D;" d="M-460.144,581.76c-0.375,0.375-0.6,0.675-0.675,0.9c-0.075,0.3,0,0.525,0.225,0.75
			c0.15,0.15,0.375,0.225,0.525,0.225c0.225,0,0.45-0.15,0.675-0.3c0.225-0.3,0.375-0.6,0.375-0.975
			c-0.075-0.3-0.225-0.675-0.525-0.975l-0.15-0.15L-460.144,581.76L-460.144,581.76z M-459.394,580.56l1.65,1.725l-0.45,0.45
			l-0.45-0.45c0.075,0.3,0.075,0.6,0,0.825c-0.075,0.225-0.3,0.525-0.525,0.75c-0.3,0.3-0.6,0.45-0.975,0.45
			c-0.3,0-0.675-0.15-0.9-0.45c-0.375-0.3-0.525-0.675-0.45-1.05c0.075-0.375,0.3-0.825,0.75-1.275l0.675-0.675l0,0
			c-0.225-0.225-0.525-0.375-0.75-0.3c-0.3,0-0.525,0.15-0.825,0.375c-0.15,0.225-0.3,0.375-0.45,0.6
			c-0.075,0.15-0.225,0.375-0.225,0.6l-0.45-0.45c0.075-0.225,0.225-0.45,0.3-0.675c0.15-0.15,0.3-0.375,0.45-0.525
			c0.45-0.375,0.9-0.6,1.35-0.6C-460.294,579.885-459.844,580.11-459.394,580.56L-459.394,580.56z"/>
		<path style="fill:#3B3C3D;" d="M-456.019,577.035l1.8,1.8l-0.525,0.525l-1.725-1.8c-0.3-0.3-0.525-0.45-0.825-0.45
			c-0.225-0.075-0.45,0-0.675,0.225c-0.3,0.3-0.375,0.6-0.375,0.9c0,0.3,0.15,0.6,0.45,0.9l1.65,1.65l-0.45,0.525l-3-3l0.525-0.45
			l0.45,0.45c-0.075-0.3-0.075-0.6,0-0.825c0.075-0.225,0.225-0.45,0.45-0.675c0.3-0.3,0.675-0.45,1.05-0.45
			C-456.844,576.435-456.394,576.66-456.019,577.035L-456.019,577.035z"/>
		<path style="fill:#3B3C3D;" d="M-453.769,573.435l-1.65-1.65l0.525-0.45l4.05,4.125l-0.45,0.45l-0.45-0.45
			c0.075,0.3,0.075,0.6,0,0.825c-0.075,0.225-0.225,0.45-0.45,0.675c-0.375,0.375-0.75,0.525-1.275,0.45
			c-0.525-0.075-0.975-0.375-1.5-0.825c-0.45-0.45-0.675-0.9-0.75-1.425c-0.075-0.525,0.075-0.975,0.45-1.35
			c0.225-0.15,0.45-0.3,0.675-0.375C-454.369,573.36-454.069,573.36-453.769,573.435z M-454.444,576.135
			c0.375,0.3,0.75,0.525,1.05,0.6c0.375,0.075,0.675-0.075,0.9-0.3c0.3-0.225,0.375-0.525,0.3-0.9c0-0.375-0.225-0.75-0.6-1.05
			c-0.3-0.375-0.675-0.6-1.05-0.675c-0.375,0-0.675,0.075-0.9,0.3c-0.225,0.3-0.375,0.6-0.3,0.9
			C-454.969,575.385-454.819,575.76-454.444,576.135L-454.444,576.135z"/>
		<path style="fill:#3B3C3D;" d="M-449.419,570.285l1.425,1.5l0.9-0.9c0.3-0.225,0.45-0.525,0.45-0.75c0-0.3-0.075-0.525-0.375-0.75
			c-0.225-0.3-0.45-0.375-0.75-0.375c-0.225,0-0.525,0.15-0.75,0.45L-449.419,570.285L-449.419,570.285z M-450.994,568.71l1.125,1.2
			l0.825-0.825c0.3-0.225,0.375-0.525,0.45-0.675c0-0.3-0.075-0.45-0.225-0.675c-0.225-0.225-0.45-0.3-0.675-0.225
			c-0.225,0-0.45,0.15-0.75,0.375L-450.994,568.71L-450.994,568.71z M-451.969,568.785l1.35-1.35c0.375-0.45,0.825-0.675,1.2-0.675
			c0.375-0.075,0.75,0.075,1.05,0.375c0.225,0.225,0.375,0.525,0.375,0.75c0.075,0.225,0,0.525-0.225,0.75
			c0.3-0.225,0.675-0.3,0.975-0.225c0.3,0,0.6,0.15,0.9,0.45c0.3,0.375,0.45,0.75,0.45,1.2c-0.075,0.375-0.3,0.825-0.75,1.275
			l-1.425,1.425L-451.969,568.785L-451.969,568.785z"/>
		<path style="fill:#3B3C3D;" d="M-443.644,564.81l1.725,1.8l-0.45,0.525l-1.8-1.8c-0.225-0.3-0.525-0.45-0.75-0.45
			c-0.3-0.075-0.525,0.075-0.75,0.3c-0.225,0.225-0.375,0.525-0.375,0.825c0.075,0.3,0.225,0.6,0.45,0.9l1.725,1.725l-0.525,0.45
			l-4.05-4.125l0.45-0.45l1.65,1.575c-0.075-0.3-0.075-0.525,0-0.825c0.075-0.225,0.225-0.45,0.375-0.675
			c0.375-0.3,0.75-0.45,1.125-0.45C-444.469,564.21-444.094,564.435-443.644,564.81L-443.644,564.81z"/>
		<path style="fill:#3B3C3D;" d="M-442.144,564.51l-1.8-1.8l0.525-0.45l1.725,1.8c0.3,0.225,0.6,0.45,0.825,0.45
			s0.45-0.075,0.675-0.3c0.3-0.225,0.375-0.525,0.375-0.825c0-0.375-0.15-0.675-0.45-0.9l-1.65-1.725l0.45-0.45l3,2.925
			l-0.525,0.525l-0.45-0.45c0.075,0.3,0.075,0.525,0,0.75c-0.075,0.3-0.225,0.525-0.45,0.675c-0.3,0.375-0.675,0.525-1.05,0.45
			C-441.319,565.185-441.769,564.96-442.144,564.51L-442.144,564.51z"/>
		<path style="fill:#3B3C3D;" d="M-440.794,557.985l0.825,0.825l1.05-0.975l0.375,0.375l-1.05,0.975l1.65,1.65
			c0.225,0.225,0.375,0.3,0.525,0.3c0.15,0,0.3-0.075,0.525-0.3l0.525-0.45l0.375,0.375l-0.525,0.525
			c-0.375,0.375-0.675,0.525-0.975,0.525c-0.3,0-0.6-0.15-0.975-0.525l-1.575-1.575l-0.375,0.3l-0.375-0.375l0.375-0.375
			l-0.825-0.825L-440.794,557.985L-440.794,557.985z"/>
		<path style="fill:#3B3C3D;" d="M-435.469,557.31c-0.375,0.375-0.675,0.75-0.675,0.975c-0.075,0.225,0,0.45,0.225,0.675
			c0.15,0.15,0.375,0.225,0.525,0.225c0.225,0,0.45-0.075,0.675-0.3c0.225-0.3,0.375-0.6,0.375-0.9
			c-0.075-0.375-0.225-0.75-0.525-1.05l-0.15-0.075L-435.469,557.31L-435.469,557.31z M-434.719,556.185l1.65,1.65l-0.45,0.525
			l-0.45-0.45c0.075,0.225,0.075,0.525,0,0.75c-0.075,0.3-0.3,0.525-0.525,0.75c-0.3,0.3-0.6,0.45-0.975,0.45
			c-0.3,0-0.675-0.075-0.9-0.375c-0.375-0.375-0.525-0.75-0.45-1.125c0.075-0.375,0.3-0.75,0.75-1.2l0.675-0.675v-0.075
			c-0.225-0.225-0.525-0.3-0.75-0.3c-0.3,0-0.525,0.15-0.825,0.45c-0.15,0.15-0.3,0.3-0.45,0.525c-0.075,0.225-0.225,0.45-0.3,0.675
			l-0.375-0.45c0.075-0.3,0.225-0.525,0.3-0.675c0.15-0.225,0.3-0.375,0.45-0.525c0.45-0.45,0.9-0.675,1.35-0.675
			C-435.619,555.435-435.169,555.735-434.719,556.185L-434.719,556.185z"/>
		<path style="fill:#3B3C3D;" d="M-431.344,552.585l1.8,1.8l-0.525,0.525l-1.725-1.8c-0.3-0.3-0.525-0.45-0.825-0.45
			c-0.225-0.075-0.45,0.075-0.675,0.3c-0.3,0.225-0.375,0.525-0.375,0.825c0,0.3,0.15,0.6,0.45,0.9l1.65,1.725l-0.45,0.45l-3-2.925
			l0.525-0.525l0.45,0.45c-0.075-0.3-0.075-0.525,0-0.825c0.075-0.225,0.225-0.45,0.45-0.675c0.3-0.3,0.675-0.45,1.05-0.375
			C-432.169,551.985-431.719,552.21-431.344,552.585L-431.344,552.585z"/>
		<path style="fill:#3B3C3D;" d="M-429.169,552.735l0.525-0.6l0.675,0.675l-0.525,0.6L-429.169,552.735L-429.169,552.735z"/>
		<path style="fill:#3B3C3D;" d="M-435.769,749.085l0.675,0.675c-0.45,0-0.825,0.075-1.125,0.225c-0.3,0.15-0.6,0.375-0.9,0.6
			c-0.525,0.525-0.75,1.125-0.75,1.725c0.075,0.6,0.375,1.2,0.975,1.8c0.6,0.6,1.2,0.9,1.8,0.975c0.6,0.075,1.2-0.225,1.725-0.75
			c0.225-0.225,0.45-0.525,0.6-0.9c0.15-0.3,0.225-0.675,0.225-1.05l0.675,0.6c-0.075,0.375-0.225,0.75-0.375,1.05
			c-0.225,0.3-0.375,0.6-0.675,0.9c-0.675,0.675-1.5,0.975-2.325,0.975c-0.825,0-1.575-0.45-2.325-1.125
			c-0.675-0.75-1.125-1.575-1.125-2.4s0.3-1.575,1.05-2.25c0.225-0.3,0.525-0.525,0.9-0.675
			C-436.444,749.31-436.144,749.16-435.769,749.085L-435.769,749.085z"/>
		<path style="fill:#3B3C3D;" d="M-430.744,749.16c-0.45,0.45-0.75,0.825-0.825,1.05c-0.075,0.3,0,0.6,0.3,0.825
			c0.15,0.225,0.375,0.3,0.675,0.3c0.225,0,0.45-0.15,0.675-0.375c0.375-0.3,0.45-0.675,0.45-1.05c0-0.45-0.225-0.825-0.6-1.2
			l-0.15-0.15L-430.744,749.16L-430.744,749.16z M-429.844,747.81l1.95,1.95l-0.6,0.525l-0.525-0.525
			c0.15,0.375,0.075,0.675,0,0.975c-0.075,0.3-0.3,0.6-0.525,0.825c-0.375,0.375-0.75,0.525-1.2,0.6c-0.375,0-0.75-0.15-1.05-0.525
			c-0.375-0.375-0.6-0.825-0.525-1.275c0.075-0.45,0.375-0.9,0.9-1.425l0.825-0.825h-0.075c-0.3-0.3-0.525-0.375-0.9-0.375
			c-0.3,0-0.6,0.15-0.9,0.525c-0.225,0.15-0.375,0.375-0.525,0.6c-0.15,0.225-0.225,0.525-0.3,0.75l-0.525-0.525
			c0.15-0.3,0.225-0.525,0.45-0.75c0.15-0.225,0.3-0.45,0.45-0.675c0.525-0.45,1.05-0.675,1.5-0.675
			C-430.894,746.985-430.369,747.285-429.844,747.81L-429.844,747.81z"/>
		<path style="fill:#3B3C3D;" d="M-427.594,743.685c-0.15,0-0.225,0.075-0.3,0.15c-0.075,0-0.225,0.075-0.3,0.15
			c-0.3,0.375-0.45,0.675-0.45,1.05c0.075,0.45,0.3,0.825,0.675,1.2l1.8,1.8l-0.6,0.6l-3.375-3.45l0.525-0.6l0.525,0.525
			c-0.075-0.3-0.075-0.6,0-0.9c0.15-0.3,0.3-0.6,0.6-0.825c0-0.075,0.075-0.15,0.15-0.15c0-0.075,0.075-0.075,0.15-0.15
			L-427.594,743.685L-427.594,743.685z"/>
		<path style="fill:#3B3C3D;" d="M-424.82,740.911l-1.874-1.875l0.525-0.525l4.799,4.799l-0.6,0.525l-0.525-0.525
			c0.15,0.375,0.15,0.675,0,0.975c-0.075,0.225-0.225,0.525-0.45,0.75c-0.45,0.45-0.975,0.6-1.575,0.525
			c-0.525-0.075-1.125-0.375-1.649-0.9c-0.525-0.6-0.825-1.125-0.9-1.725c-0.075-0.599,0.075-1.124,0.525-1.499
			c0.225-0.3,0.524-0.45,0.749-0.525C-425.495,740.836-425.195,740.836-424.82,740.911L-424.82,740.911z M-425.57,744.06
			c0.375,0.45,0.825,0.675,1.2,0.75c0.45,0.075,0.75-0.075,1.05-0.375c0.3-0.3,0.45-0.675,0.375-1.05
			c-0.075-0.45-0.3-0.824-0.675-1.274c-0.45-0.375-0.825-0.6-1.275-0.675c-0.375-0.075-0.75,0-1.05,0.3
			c-0.299,0.3-0.449,0.675-0.374,1.05C-426.244,743.235-426.02,743.61-425.57,744.06L-425.57,744.06z"/>
		<path style="fill:#3B3C3D;" d="M-327.469,647.535l-1.65,3.6l-0.375-0.375l1.425-3l-3.075,1.35l-0.375-0.375l3.6-1.575
			L-327.469,647.535z"/>
		<path style="fill:#3B3C3D;" d="M-333.619,646.185l0.375-0.375c0,0.225,0,0.45,0.075,0.6c0.075,0.225,0.225,0.375,0.375,0.525
			c0.3,0.3,0.6,0.45,0.975,0.45c0.3,0,0.675-0.225,1.05-0.6c0.3-0.3,0.525-0.675,0.525-0.975c0-0.375-0.075-0.675-0.375-0.975
			c-0.15-0.15-0.375-0.3-0.525-0.375c-0.225-0.075-0.45-0.075-0.675-0.15l0.375-0.375c0.225,0.075,0.45,0.15,0.6,0.225
			c0.225,0.15,0.375,0.225,0.525,0.375c0.375,0.45,0.6,0.825,0.525,1.35c0,0.45-0.225,0.9-0.6,1.35c-0.45,0.375-0.9,0.6-1.35,0.6
			c-0.525,0-0.9-0.15-1.35-0.6c-0.15-0.15-0.225-0.3-0.375-0.45C-333.544,646.56-333.619,646.41-333.619,646.185L-333.619,646.185z"
			/>
		<path style="fill:#3B3C3D;" d="M-334.069,646.185l-2.175-2.25l0.3-0.3l0.9,0.975l2.325-2.325l0.375,0.375l-2.325,2.325l0.9,0.9
			L-334.069,646.185L-334.069,646.185z"/>
		<path style="fill:#3B3C3D;" d="M-337.744,642.435l-0.375-0.3l2.7-2.625l0.3,0.375L-337.744,642.435L-337.744,642.435z"/>
		<path style="fill:#3B3C3D;" d="M-338.794,641.385l-0.45-0.45l1.05-3.375l-2.25,2.175l-0.3-0.3l2.625-2.625l0.45,0.45l-1.05,3.375
			l2.25-2.175l0.3,0.3L-338.794,641.385L-338.794,641.385z"/>
		<path style="fill:#3B3C3D;" d="M-340.594,634.86l-1.275-1.2l0.3-0.3l1.725,1.65l-0.3,0.3c-0.3,0-0.675,0-1.125,0
			c-0.525,0-0.825,0-0.9,0c-0.225,0-0.45,0.075-0.6,0.075c-0.075,0.075-0.225,0.15-0.3,0.225c-0.15,0.15-0.225,0.3-0.225,0.45
			c0,0.225,0.075,0.375,0.3,0.525c0.075,0.15,0.225,0.225,0.375,0.3c0.15,0.075,0.375,0.15,0.6,0.225l-0.375,0.375
			c-0.225-0.075-0.375-0.15-0.525-0.3c-0.15-0.075-0.3-0.15-0.375-0.3c-0.3-0.225-0.45-0.525-0.45-0.825
			c-0.075-0.3,0.075-0.525,0.3-0.75c0.075-0.15,0.225-0.225,0.375-0.3c0.15,0,0.3-0.075,0.525-0.075c0.075,0,0.3,0,0.6-0.075
			C-341.644,634.86-341.194,634.86-340.594,634.86L-340.594,634.86z"/>
		<path style="fill:#3B3C3D;" d="M-345.469,634.185c0.225,0.225,0.45,0.225,0.75,0.15c0.225-0.075,0.525-0.3,0.9-0.675
			c0.375-0.3,0.6-0.675,0.675-0.9c0.075-0.3,0.075-0.525-0.15-0.675c-0.15-0.225-0.375-0.225-0.675-0.15
			c-0.225,0.075-0.6,0.3-0.9,0.675c-0.375,0.3-0.6,0.675-0.675,0.9C-345.694,633.81-345.619,634.035-345.469,634.185
			L-345.469,634.185z M-345.694,634.485c-0.3-0.3-0.45-0.6-0.375-1.05c0.075-0.375,0.375-0.75,0.825-1.2
			c0.45-0.45,0.825-0.675,1.275-0.75c0.375-0.075,0.675,0,0.975,0.3c0.3,0.3,0.375,0.6,0.3,1.05c-0.075,0.375-0.3,0.75-0.75,1.2
			c-0.45,0.45-0.9,0.675-1.275,0.75C-345.094,634.861-345.394,634.785-345.694,634.485L-345.694,634.485z"/>
		<path style="fill:#3B3C3D;" d="M-344.944,630.51l-0.525-0.6l-2.025,2.025l0.75,0.525l-0.3,0.3l-0.75-0.525l-0.375-0.3l2.325-2.325
			l-0.6-0.6l0.3-0.3l1.5,1.5L-344.944,630.51L-344.944,630.51z"/>
		<path style="fill:#3B3C3D;" d="M-349.294,628.335c-0.15-0.225-0.225-0.45-0.225-0.675c0.075-0.15,0.15-0.375,0.3-0.525
			c0.3-0.3,0.525-0.375,0.9-0.375c0.3,0.075,0.6,0.225,0.975,0.6c0.075,0.075,0.15,0.225,0.3,0.375c0.075,0.15,0.15,0.3,0.225,0.45
			l-0.3,0.3c-0.075-0.15-0.15-0.3-0.225-0.45c-0.075-0.15-0.225-0.225-0.3-0.375c-0.225-0.225-0.45-0.375-0.675-0.375
			c-0.225-0.075-0.375,0-0.525,0.225c-0.15,0.15-0.225,0.3-0.225,0.525c0,0.15,0.15,0.375,0.3,0.525l0.3,0.3l-0.3,0.3l-0.3-0.3
			c-0.15-0.15-0.3-0.3-0.525-0.3c-0.15,0-0.3,0-0.375,0.15c-0.15,0.15-0.225,0.3-0.225,0.45c0.075,0.15,0.15,0.375,0.3,0.525
			c0.15,0.075,0.225,0.225,0.375,0.3c0.15,0.075,0.3,0.15,0.45,0.3l-0.3,0.3c-0.15-0.15-0.3-0.225-0.45-0.3
			c-0.15-0.15-0.3-0.225-0.375-0.3c-0.3-0.3-0.45-0.6-0.45-0.825c-0.075-0.3,0.075-0.525,0.225-0.75
			c0.15-0.15,0.375-0.225,0.525-0.225C-349.744,628.185-349.519,628.185-349.294,628.335L-349.294,628.335z"/>
		<path style="fill:#3B3C3D;" d="M-352.294,627.285c0.225,0.225,0.45,0.225,0.675,0.15c0.3-0.075,0.6-0.3,0.975-0.675
			c0.375-0.3,0.6-0.675,0.675-0.9c0.075-0.3,0.075-0.525-0.15-0.675c-0.15-0.225-0.375-0.3-0.675-0.15
			c-0.3,0.075-0.6,0.3-0.975,0.675c-0.3,0.3-0.525,0.6-0.675,0.9C-352.519,626.91-352.444,627.135-352.294,627.285z
			 M-352.594,627.585c-0.225-0.3-0.375-0.675-0.3-1.05c0.075-0.375,0.375-0.75,0.825-1.2c0.45-0.45,0.825-0.75,1.2-0.825
			c0.45-0.075,0.75,0.075,1.05,0.375c0.3,0.3,0.375,0.6,0.3,1.05c-0.075,0.375-0.3,0.75-0.75,1.2c-0.45,0.45-0.9,0.675-1.275,0.75
			C-351.919,627.96-352.294,627.885-352.594,627.585L-352.594,627.585z"/>
		<path style="fill:#3B3C3D;" d="M-353.869,623.685c-0.15-0.15-0.225-0.375-0.225-0.6c0.075-0.225,0.15-0.375,0.3-0.6
			c0.3-0.225,0.6-0.3,0.9-0.3c0.3,0.075,0.6,0.225,0.975,0.525c0.075,0.15,0.225,0.3,0.3,0.375c0.075,0.15,0.15,0.3,0.225,0.525
			l-0.3,0.3c-0.075-0.15-0.15-0.3-0.225-0.45s-0.15-0.3-0.3-0.375c-0.225-0.225-0.45-0.375-0.675-0.45
			c-0.15,0-0.375,0.075-0.525,0.225c-0.15,0.15-0.225,0.375-0.225,0.525c0.075,0.225,0.15,0.375,0.3,0.6l0.375,0.3l-0.3,0.3
			l-0.375-0.3c-0.15-0.225-0.3-0.3-0.45-0.3c-0.15-0.075-0.3,0-0.45,0.15c-0.15,0.15-0.225,0.3-0.15,0.45
			c0,0.15,0.075,0.3,0.3,0.525c0.075,0.075,0.15,0.15,0.3,0.3c0.15,0.075,0.3,0.15,0.45,0.225l-0.3,0.3
			c-0.15-0.075-0.3-0.15-0.45-0.3c-0.15-0.075-0.225-0.15-0.375-0.3c-0.225-0.225-0.375-0.525-0.45-0.825
			c0-0.225,0.075-0.525,0.3-0.675c0.15-0.15,0.3-0.225,0.45-0.3C-354.244,623.535-354.094,623.61-353.869,623.685L-353.869,623.685z
			"/>
		<path style="fill:#3B3C3D;" d="M-354.019,621.285l-0.6-0.525l-2.025,1.95l0.75,0.525l-0.3,0.3l-0.75-0.45l-0.375-0.375
			l2.325-2.325l-0.525-0.6l0.3-0.3l1.5,1.5L-354.019,621.285L-354.019,621.285z"/>
		<path style="fill:#3B3C3D;" d="M-359.269,620.085l2.325-0.45l-0.9-0.9L-359.269,620.085z M-359.494,620.535l-0.45-0.45
			l1.725-1.725l-0.375-0.375l0.3-0.3l0.375,0.375l0.675-0.6l0.3,0.375l-0.6,0.6l1.2,1.2l-0.375,0.3L-359.494,620.535
			L-359.494,620.535z"/>
		<path style="fill:#3B3C3D;" d="M-362.569,616.935c0.225,0.225,0.45,0.225,0.75,0.15c0.225-0.075,0.525-0.3,0.9-0.675
			c0.375-0.375,0.6-0.675,0.675-0.9c0.075-0.3,0.075-0.525-0.15-0.75c-0.15-0.15-0.375-0.225-0.675-0.15
			c-0.225,0.15-0.6,0.375-0.9,0.675c-0.375,0.375-0.6,0.675-0.675,0.975C-362.794,616.56-362.719,616.785-362.569,616.935
			L-362.569,616.935z M-362.794,617.235c-0.3-0.3-0.45-0.675-0.375-1.05c0.075-0.375,0.375-0.825,0.825-1.2
			c0.45-0.45,0.825-0.75,1.275-0.825c0.375-0.075,0.675,0.075,0.975,0.375c0.3,0.3,0.375,0.6,0.3,0.975
			c-0.075,0.45-0.3,0.825-0.75,1.275c-0.45,0.45-0.9,0.675-1.275,0.75C-362.194,617.61-362.494,617.535-362.794,617.235
			L-362.794,617.235z"/>
		<path style="fill:#3B3C3D;" d="M-364.144,613.335c-0.15-0.225-0.225-0.375-0.15-0.6c0-0.225,0.075-0.375,0.225-0.6
			c0.3-0.225,0.6-0.375,0.9-0.3c0.3,0,0.675,0.225,0.975,0.525c0.075,0.15,0.225,0.225,0.3,0.375c0.075,0.15,0.15,0.3,0.3,0.45
			l-0.375,0.375c-0.075-0.15-0.075-0.3-0.225-0.45c-0.075-0.15-0.15-0.3-0.3-0.45c-0.225-0.225-0.45-0.3-0.6-0.375
			c-0.225,0-0.45,0.075-0.6,0.225c-0.15,0.15-0.225,0.3-0.225,0.525c0.075,0.225,0.15,0.375,0.375,0.6l0.3,0.3l-0.3,0.3l-0.3-0.3
			c-0.225-0.225-0.375-0.3-0.525-0.3c-0.15-0.075-0.3,0-0.45,0.15c-0.15,0.075-0.225,0.225-0.15,0.45c0,0.15,0.075,0.3,0.3,0.525
			c0.075,0.075,0.225,0.15,0.3,0.225c0.15,0.15,0.3,0.225,0.525,0.3l-0.375,0.3c-0.15-0.075-0.3-0.15-0.45-0.3
			c-0.15-0.075-0.225-0.15-0.375-0.3c-0.225-0.225-0.375-0.525-0.45-0.825c0-0.3,0.075-0.525,0.3-0.75
			c0.15-0.075,0.3-0.225,0.45-0.225C-364.519,613.185-364.369,613.26-364.144,613.335L-364.144,613.335z"/>
		<path style="fill:#3B3C3D;" d="M-367.069,612.81l-0.3-0.3l3.825-2.025l0.3,0.3L-367.069,612.81z"/>
		<path style="fill:#3B3C3D;" d="M-365.494,609.735l-0.6-0.6l-2.025,2.025l0.75,0.525l-0.3,0.3l-0.75-0.525l-0.375-0.375l2.325-2.25
			l-0.525-0.6l0.3-0.3l1.5,1.5L-365.494,609.735L-365.494,609.735z"/>
		<path style="fill:#3B3C3D;" d="M-369.919,607.56c-0.15-0.225-0.225-0.45-0.15-0.675c0-0.225,0.075-0.375,0.3-0.525
			c0.225-0.3,0.525-0.375,0.825-0.375c0.3,0.075,0.675,0.225,0.975,0.6c0.15,0.075,0.225,0.225,0.3,0.375
			c0.075,0.075,0.225,0.225,0.3,0.45l-0.375,0.3c-0.075-0.15-0.075-0.3-0.225-0.45c-0.075-0.15-0.15-0.3-0.3-0.375
			c-0.225-0.225-0.45-0.375-0.6-0.375c-0.225-0.075-0.45,0-0.6,0.15c-0.15,0.15-0.225,0.375-0.15,0.525c0,0.225,0.075,0.45,0.3,0.6
			l0.3,0.3l-0.3,0.3l-0.3-0.3c-0.225-0.225-0.375-0.3-0.525-0.3c-0.15,0-0.3,0-0.45,0.15s-0.15,0.3-0.15,0.45s0.075,0.375,0.3,0.525
			c0.075,0.075,0.225,0.225,0.3,0.3c0.15,0.075,0.3,0.15,0.525,0.225l-0.375,0.375c-0.15-0.15-0.3-0.225-0.45-0.3
			c-0.15-0.15-0.225-0.225-0.375-0.375c-0.225-0.225-0.375-0.525-0.45-0.825c0-0.225,0.075-0.45,0.3-0.675
			c0.15-0.15,0.3-0.225,0.525-0.225C-370.294,607.335-370.143,607.41-369.919,607.56L-369.919,607.56z"/>
		<path style="fill:#3B3C3D;" d="M-373.444,606.36l-0.375-0.3l2.625-2.625l0.375,0.375L-373.444,606.36L-373.444,606.36z"/>
		<path style="fill:#3B3C3D;" d="M-376.294,603.135l0.375-0.375c0.075,0.225,0.075,0.45,0.15,0.675c0.075,0.15,0.225,0.3,0.375,0.45
			c0.3,0.3,0.6,0.45,0.975,0.45c0.3,0,0.675-0.225,0.975-0.525c0.375-0.375,0.6-0.675,0.6-1.05s-0.15-0.675-0.45-0.975
			c-0.15-0.15-0.3-0.3-0.45-0.375c-0.225-0.075-0.45-0.075-0.675-0.075l0.375-0.375c0.225,0,0.45,0.075,0.6,0.15
			c0.15,0.15,0.375,0.225,0.525,0.45c0.375,0.375,0.525,0.825,0.525,1.275s-0.225,0.9-0.675,1.35c-0.375,0.375-0.825,0.6-1.275,0.6
			c-0.525,0.075-0.975-0.15-1.35-0.525c-0.15-0.15-0.3-0.375-0.375-0.525C-376.145,603.51-376.219,603.36-376.294,603.135
			L-376.294,603.135z"/>
		<path style="fill:#3B3C3D;" d="M-377.569,601.56l1.8-0.825l-0.9-0.975L-377.569,601.56z M-377.719,602.085l-0.375-0.375l1.65-3.6
			l0.375,0.375l-0.45,0.9l1.2,1.2l0.9-0.45l0.375,0.375L-377.719,602.085L-377.719,602.085z"/>
		<path style="fill:#3B3C3D;" d="M-380.644,599.16l-1.35-1.425l0.3-0.3l1.05,1.05l0.6-0.6c0-0.075-0.075-0.075-0.15-0.15
			c-0.075,0-0.15-0.075-0.15-0.15c-0.3-0.3-0.45-0.6-0.45-0.9c0-0.375,0.075-0.675,0.375-0.9c0.3-0.3,0.6-0.45,0.9-0.375
			c0.375,0,0.675,0.15,0.975,0.45c0.15,0.15,0.225,0.225,0.3,0.375c0.15,0.15,0.225,0.3,0.3,0.45l-0.375,0.375
			c0-0.15-0.075-0.3-0.15-0.45c-0.15-0.15-0.225-0.3-0.375-0.45c-0.15-0.15-0.375-0.3-0.6-0.3c-0.225,0-0.45,0.075-0.6,0.225
			c-0.225,0.225-0.3,0.45-0.3,0.675c0,0.225,0.15,0.375,0.3,0.6c0.15,0.075,0.225,0.225,0.375,0.3
			c0.075,0.075,0.225,0.075,0.375,0.15L-380.644,599.16L-380.644,599.16z"/>
		<path style="fill:#3B3C3D;" d="M-380.644,594.435l-0.6-0.525l-1.95,1.95l0.75,0.525l-0.375,0.3l-0.75-0.525l-0.3-0.3l2.325-2.325
			l-0.6-0.6l0.3-0.3l1.5,1.5L-380.644,594.435L-380.644,594.435z"/>
		<path style="fill:#3B3C3D;" d="M-382.894,592.185l-0.6-0.6l-2.025,1.95l0.75,0.525l-0.3,0.3l-0.75-0.45l-0.375-0.375l2.325-2.325
			l-0.525-0.6l0.3-0.3l1.5,1.575L-382.894,592.185L-382.894,592.185z"/>
		<path style="fill:#3B3C3D;" d="M-387.995,591.21c0.15,0.225,0.45,0.225,0.675,0.15c0.3-0.075,0.6-0.3,0.975-0.675
			c0.375-0.3,0.6-0.675,0.675-0.9c0.075-0.3,0-0.525-0.15-0.675c-0.15-0.225-0.375-0.225-0.675-0.15c-0.3,0.075-0.6,0.3-0.975,0.675
			c-0.375,0.3-0.6,0.675-0.675,0.9C-388.219,590.835-388.144,591.06-387.995,591.21z M-388.295,591.51c-0.3-0.3-0.375-0.6-0.3-1.05
			c0.075-0.375,0.375-0.75,0.75-1.2c0.45-0.45,0.9-0.675,1.275-0.75c0.375-0.075,0.75,0,1.05,0.3c0.3,0.3,0.375,0.6,0.3,1.05
			c-0.075,0.375-0.375,0.75-0.75,1.2c-0.45,0.45-0.9,0.675-1.275,0.75C-387.62,591.885-387.995,591.81-388.295,591.51
			L-388.295,591.51z"/>
	</g>
	<path style="fill:#67362A;" d="M-612.919,743.085h340.875c8.7,0,15.75,7.05,15.75,15.75v245.776c0,8.699-7.05,15.749-15.75,15.749
		h-340.875c-8.7,0-15.75-7.05-15.75-15.749V758.835C-628.669,750.135-621.619,743.085-612.919,743.085L-612.919,743.085z"/>
	<path style="fill:#603227;" d="M-612.919,743.085c-8.7,0-15.75,7.05-15.75,15.75v245.776c0,8.699,7.05,15.749,15.75,15.749h340.875
		c5.775,0,10.8-3.075,13.5-7.649h-341.475c-8.775,0-15.75-7.05-15.75-15.75V766.485c0-8.7,6.975-15.75,15.75-15.75h341.475
		c-2.7-4.575-7.725-7.65-13.5-7.65H-612.919z"/>
	<g shape-rendering="auto" image-rendering="auto" color-rendering="auto" color-interpolation="sRGB">
		<path style="fill:#CBAF80;" d="M-616.792,753.592l-0.416,1.482l0.857,1.279l0.957,0.268h7.35l1.398-0.645l0.416-1.482
			l-0.857-1.279l-0.957-0.268h-7.35L-616.792,753.592z"/>
		<path style="fill:#CBAF80;" d="M-594.741,753.592l-0.416,1.482l0.857,1.279l0.957,0.268h7.35l1.398-0.645l0.416-1.482
			l-0.859-1.279l-0.955-0.268h-7.35L-594.741,753.592z"/>
		<path style="fill:#CBAF80;" d="M-572.692,753.592l-0.416,1.482l0.859,1.279l0.955,0.268h7.35l1.398-0.645l0.416-1.482
			l-0.857-1.279l-0.957-0.268h-7.35L-572.692,753.592z"/>
		<path style="fill:#CBAF80;" d="M-550.641,753.592l-0.416,1.482l0.857,1.279l0.957,0.268h7.35l1.398-0.645l0.416-1.482
			l-0.859-1.279l-0.955-0.268h-7.35L-550.641,753.592z"/>
		<path style="fill:#CBAF80;" d="M-528.592,753.592l-0.416,1.482l0.859,1.279l0.955,0.268h7.352l1.396-0.645l0.418-1.482
			l-0.859-1.279l-0.955-0.268h-7.352L-528.592,753.592z"/>
		<path style="fill:#CBAF80;" d="M-506.542,753.592l-0.416,1.482l0.857,1.279l0.957,0.268h7.35l1.398-0.645l0.416-1.482
			l-0.857-1.279l-0.957-0.268h-7.35L-506.542,753.592z"/>
		<path style="fill:#CBAF80;" d="M-484.491,753.592l-0.416,1.482l0.857,1.279l0.957,0.268h7.35l1.398-0.645l0.416-1.482
			l-0.859-1.279l-0.955-0.268h-7.35L-484.491,753.592z"/>
		<path style="fill:#CBAF80;" d="M-462.442,753.592l-0.416,1.482l0.859,1.279l0.955,0.268h7.35l1.398-0.645l0.416-1.482
			l-0.857-1.279l-0.957-0.268h-7.35L-462.442,753.592z"/>
		<path style="fill:#CBAF80;" d="M-440.391,753.592l-0.416,1.482l0.857,1.279l0.957,0.268h7.35l1.398-0.645l0.416-1.482
			l-0.857-1.279l-0.957-0.268h-7.35L-440.391,753.592z"/>
		<path style="fill:#CBAF80;" d="M-418.342,753.592l-0.416,1.482l0.859,1.279l0.955,0.268h7.352l1.397-0.645l0.418-1.482
			l-0.859-1.279l-0.955-0.268h-7.352L-418.342,753.592z"/>
		<path style="fill:#CBAF80;" d="M-396.291,753.592l-0.416,1.482l0.857,1.279l0.957,0.268h7.35l1.398-0.645l0.416-1.482
			l-0.857-1.279l-0.957-0.268h-7.35L-396.291,753.592z"/>
		<path style="fill:#CBAF80;" d="M-374.24,753.592l-0.416,1.482l0.857,1.279l0.957,0.268h7.35l1.398-0.645l0.416-1.482l-0.859-1.279
			l-0.955-0.268h-7.35L-374.24,753.592z"/>
		<path style="fill:#CBAF80;" d="M-352.191,753.592l-0.416,1.482l0.859,1.279l0.955,0.268h7.35l1.398-0.645l0.416-1.482
			l-0.857-1.279l-0.957-0.268h-7.35L-352.191,753.592z"/>
		<path style="fill:#CBAF80;" d="M-330.14,753.592l-0.416,1.482l0.857,1.279l0.957,0.268h7.35l1.398-0.645l0.416-1.482l-0.857-1.279
			l-0.957-0.268h-7.35L-330.14,753.592z"/>
		<path style="fill:#CBAF80;" d="M-308.091,753.592l-0.416,1.482l0.859,1.279l0.955,0.268h7.352l1.397-0.645l0.418-1.482
			l-0.859-1.279l-0.955-0.268h-7.352L-308.091,753.592z"/>
		<path style="fill:#CBAF80;" d="M-285.977,753.524l-0.49,1.461l0.793,1.32l0.941,0.314l1.381,0.068l1.277,0.195l1.211,0.311
			l1.143,0.414l1.113,0.533l0.059,0.035l0.02,0.002l0.004,0.002v-0.002l1.506,0.168l1.123-1.053l-0.072-1.539l-0.68-0.725
			l-0.131-0.078l-0.076-0.047l-0.082-0.039l-1.266-0.605l-0.08-0.039l-0.086-0.031l-1.33-0.484l-0.086-0.031l-0.088-0.021
			l-1.391-0.355l-0.088-0.023l-0.092-0.014l-1.439-0.219l-0.092-0.014l-0.092-0.004l-1.482-0.074L-285.977,753.524z"/>
		<path style="fill:#CBAF80;" d="M-271.817,767.684l-0.219,0.969l0.029,0.586v6.672l0.645,1.396l1.482,0.416l1.279-0.857
			l0.268-0.955v-6.727v-0.045l-0.002-0.047l-0.031-0.625l-0.715-1.363l-1.502-0.342L-271.817,767.684z"/>
		<path style="fill:#CBAF80;" d="M-271.739,789.653l-0.268,0.957v7.35l0.645,1.398l1.482,0.416l1.279-0.857l0.268-0.957v-7.35
			l-0.645-1.398l-1.482-0.416L-271.739,789.653z"/>
		<path style="fill:#CBAF80;" d="M-271.739,811.704l-0.268,0.957v7.35l0.645,1.398l1.482,0.416l1.279-0.859l0.268-0.955v-7.35
			l-0.645-1.398l-1.482-0.416L-271.739,811.704z"/>
		<path style="fill:#CBAF80;" d="M-271.739,833.755l-0.268,0.955v7.35l0.645,1.398l1.482,0.416l1.279-0.857l0.268-0.957v-7.35
			l-0.645-1.398l-1.482-0.416L-271.739,833.755z"/>
		<path style="fill:#CBAF80;" d="M-271.739,921.955l-0.268,0.957v7.35l0.645,1.398l1.482,0.416l1.279-0.859l0.268-0.955v-7.35
			l-0.645-1.398l-1.482-0.416L-271.739,921.955z"/>
		<path style="fill:#CBAF80;" d="M-271.739,944.006l-0.268,0.955v7.35l0.645,1.398l1.482,0.416l1.279-0.857l0.268-0.957v-7.35
			l-0.645-1.398l-1.482-0.416L-271.739,944.006z"/>
		<path style="fill:#CBAF80;" d="M-271.739,966.055l-0.268,0.957v7.35l0.645,1.398l1.482,0.416l1.279-0.857l0.268-0.957v-7.35
			l-0.645-1.398l-1.482-0.416L-271.739,966.055z"/>
		<path style="fill:#CBAF80;" d="M-271.739,988.106l-0.268,0.955v5.146l-0.066,1.33l-0.09,0.588l0.426,1.479l1.404,0.635
			l1.393-0.654l0.41-0.904l0.102-0.67l0.016-0.092l0.004-0.094l0.074-1.471l0.002-0.047v-0.047v-5.199l-0.645-1.398l-1.482-0.416
			L-271.739,988.106z"/>
		<path style="fill:#CBAF80;" d="M-279.614,1005.833l-0.012-0.031l-1.256,0.457l-1.193,0.305l-1.258,0.191l-1.365,0.068h-1.469
			l-1.398,0.646l-0.416,1.482l0.857,1.277l0.957,0.27h1.521h0.047h0.045l1.486-0.074l0.092-0.01l0.092-0.014l1.439-0.219
			l0.092-0.014l0.088-0.021l1.391-0.355l0.088-0.023l0.086-0.029l1.33-0.484l0.086-0.031l0.08-0.039l0.029-0.014l0.982-1.186
			l-0.266-1.518l-1.326-0.783L-279.614,1005.833z"/>
		<path style="fill:#CBAF80;" d="M-618.318,1007.469l-0.416,1.482l0.857,1.277l0.957,0.27h7.35l1.398-0.646l0.416-1.482
			l-0.859-1.277l-0.955-0.269h-7.35L-618.318,1007.469z"/>
		<path style="fill:#CBAF80;" d="M-596.269,1007.469l-0.416,1.482l0.859,1.277l0.955,0.27h7.35l1.398-0.646l0.416-1.482
			l-0.857-1.277l-0.957-0.269h-7.35L-596.269,1007.469z"/>
		<path style="fill:#CBAF80;" d="M-574.218,1007.469l-0.416,1.482l0.857,1.277l0.957,0.27h7.35l1.398-0.646l0.416-1.482
			l-0.857-1.277l-0.957-0.269h-7.35L-574.218,1007.469z"/>
		<path style="fill:#CBAF80;" d="M-552.167,1007.469l-0.418,1.482l0.859,1.277l0.955,0.27h7.352l1.398-0.646l0.416-1.482
			l-0.859-1.277l-0.955-0.269h-7.352L-552.167,1007.469z"/>
		<path style="fill:#CBAF80;" d="M-530.118,1007.469l-0.416,1.482l0.859,1.277l0.955,0.27h7.35l1.398-0.646l0.416-1.482
			l-0.857-1.277l-0.957-0.269h-7.35L-530.118,1007.469z"/>
		<path style="fill:#CBAF80;" d="M-508.067,1007.469l-0.416,1.482l0.857,1.277l0.957,0.27h7.35l1.398-0.646l0.416-1.482
			l-0.859-1.277l-0.955-0.269h-7.35L-508.067,1007.469z"/>
		<path style="fill:#CBAF80;" d="M-486.018,1007.469l-0.416,1.482l0.859,1.277l0.955,0.27h7.35l1.398-0.646l0.416-1.482
			l-0.857-1.277l-0.957-0.269h-7.35L-486.018,1007.469z"/>
		<path style="fill:#CBAF80;" d="M-463.967,1007.469l-0.416,1.482l0.857,1.277l0.957,0.27h7.35l1.398-0.646l0.416-1.482
			l-0.857-1.277l-0.957-0.269h-7.35L-463.967,1007.469z"/>
		<path style="fill:#CBAF80;" d="M-441.916,1007.469l-0.416,1.482l0.857,1.277l0.955,0.27h7.352l1.398-0.646l0.416-1.482
			l-0.859-1.277l-0.955-0.269h-7.352L-441.916,1007.469z"/>
		<path style="fill:#CBAF80;" d="M-419.867,1007.469l-0.416,1.482l0.859,1.277l0.955,0.27h7.35l1.398-0.646l0.416-1.482
			l-0.857-1.277l-0.957-0.269h-7.35L-419.867,1007.469z"/>
		<path style="fill:#CBAF80;" d="M-397.816,1007.469l-0.416,1.482l0.857,1.277l0.957,0.27h7.35l1.398-0.646l0.416-1.482
			l-0.859-1.277l-0.955-0.269h-7.35L-397.816,1007.469z"/>
		<path style="fill:#CBAF80;" d="M-375.767,1007.469l-0.416,1.482l0.859,1.277l0.955,0.27h7.352l1.397-0.646l0.416-1.482
			l-0.857-1.277l-0.955-0.269h-7.352L-375.767,1007.469z"/>
		<path style="fill:#CBAF80;" d="M-353.716,1007.469l-0.416,1.482l0.857,1.277l0.957,0.27h7.35l1.398-0.646l0.416-1.482
			l-0.857-1.277l-0.957-0.269h-7.35L-353.716,1007.469z"/>
		<path style="fill:#CBAF80;" d="M-331.665,1007.469l-0.416,1.482l0.857,1.277l0.957,0.27h7.35l1.398-0.646l0.416-1.482
			l-0.859-1.277l-0.955-0.269h-7.35L-331.665,1007.469z"/>
		<path style="fill:#CBAF80;" d="M-309.616,1007.469l-0.416,1.482l0.859,1.277l0.955,0.27h7.35l1.398-0.646l0.416-1.482
			l-0.857-1.277l-0.957-0.269h-7.35L-309.616,1007.469z"/>
	</g>
	<path style="fill:#4F2920;" d="M-343.595,848.385c-21.45,0-38.85,17.326-38.85,38.775c0,21.45,17.399,38.85,38.85,38.85
		c1.125,0,2.176-0.075,3.301-0.15c0.6,0.075,1.125,0.15,1.725,0.15h82.275v-77.625h-82.275c-0.6,0-1.125,0.075-1.725,0.15
		C-341.419,848.461-342.47,848.385-343.595,848.385z"/>
	<path style="fill:#935643;" d="M-343.594,843.211c-21.45,0-38.85,17.4-38.85,38.849c0,21.375,17.4,38.775,38.85,38.775
		c1.125,0,2.175-0.075,3.3-0.15c0.6,0.075,1.125,0.15,1.725,0.15h86.025c5.1,0,9.15-4.05,9.15-9.15v-59.324
		c0-5.025-4.05-9.15-9.15-9.15h-86.025c-0.6,0-1.125,0.075-1.725,0.15C-341.419,843.285-342.469,843.211-343.594,843.211
		L-343.594,843.211z"/>
	<g shape-rendering="auto" image-rendering="auto" color-rendering="auto" color-interpolation="sRGB">
		<path style="fill:#CBAF80;" d="M-331.942,848.394l-0.416,1.482l0.857,1.279l0.957,0.268h7.35l1.398-0.645l0.416-1.484
			l-0.859-1.277l-0.955-0.27h-7.35L-331.942,848.394z"/>
		<path style="fill:#CBAF80;" d="M-309.893,848.394l-0.416,1.482l0.859,1.279l0.955,0.268h7.35l1.398-0.645l0.416-1.484
			l-0.857-1.277l-0.957-0.27h-7.35L-309.893,848.394z"/>
		<path style="fill:#CBAF80;" d="M-287.842,848.394l-0.416,1.482l0.857,1.279l0.957,0.268h7.35l1.398-0.645l0.416-1.484
			l-0.857-1.277l-0.957-0.27h-7.35L-287.842,848.394z"/>
		<path style="fill:#CBAF80;" d="M-265.792,848.394l-0.418,1.482l0.859,1.279l0.955,0.268h7.352l1.398-0.645l0.416-1.484
			l-0.859-1.277l-0.955-0.27h-7.352L-265.792,848.394z"/>
		<path style="fill:#CBAF80;" d="M-338.698,847.79l-0.039,0.002l-0.039,0.002l-1.938,0.125l-0.041,0.004l-0.039,0.004l-1.91,0.207
			l-0.039,0.004l-0.039,0.006l-1.506,0.229l-1.285,0.848l-0.188,1.529l1.041,1.135l0.984,0.121l1.477-0.225l1.781-0.193l0.02-0.002
			l1.914-0.123h0.006l1.883-0.039l1.385-0.676l0.385-1.492l-0.887-1.26l-0.961-0.246L-338.698,847.79z"/>
		<path style="fill:#CBAF80;" d="M-358.697,853.402l-0.219,0.119l-0.035,0.019l-0.035,0.021l-1.496,0.906l-0.037,0.021l-0.033,0.023
			l-1.443,0.965l-0.035,0.023l-0.033,0.023l-1.385,1.021l-0.035,0.025l-0.033,0.027l-1.326,1.074l-0.033,0.027l-0.031,0.029
			l-0.141,0.125l-0.613,1.412l0.676,1.385l1.492,0.383l0.891-0.438l0.076-0.068l0.008-0.006l1.287-1.045l1.279-0.945l0.023-0.016
			l1.383-0.924l1.418-0.859l0.193-0.105l0.918-1.236l-0.346-1.5l-1.365-0.713L-358.697,853.402z"/>
		<path style="fill:#CBAF80;" d="M-373.658,869.431l-0.602,0.789l-0.6,1.508l-0.02,0.047l-0.018,0.051l-0.514,1.539l-0.018,0.051
			l-0.014,0.051l-0.426,1.57l-0.014,0.051l-0.012,0.053l-0.336,1.6l-0.01,0.053l-0.01,0.053l-0.123,0.834l0.432,1.477l1.404,0.631
			l1.391-0.658l0.408-0.906l0.111-0.754l0.32-1.529l0.391-1.436l0.484-1.457l0.584-1.467l-0.082-1.539l-1.225-0.934
			L-373.658,869.431z"/>
		<path style="fill:#CBAF80;" d="M-373.826,890.804l-0.869,1.27l0.105,0.988l0.33,0.83l0.02,0.049l0.022,0.045l0.684,1.473
			l0.022,0.045l0.023,0.045l0.764,1.436l0.023,0.043l0.025,0.043l0.844,1.396l0.025,0.041l0.027,0.041l0.883,1.303l1.318,0.795
			l1.461-0.486l0.576-1.428l-0.314-0.943l-0.854-1.26l-0.785-1.301l-0.74-1.391l-0.01-0.018l-0.615-1.326l-0.316-0.793l-1.117-1.061
			L-373.826,890.804z"/>
		<path style="fill:#CBAF80;" d="M-360.265,907.93l0.074,1.539l0.682,0.723l0.525,0.316l0.035,0.021l0.037,0.019l1.549,0.842
			l0.035,0.019l0.037,0.018l1.598,0.779l0.037,0.018l0.037,0.018l1.646,0.715l0.035,0.016l0.039,0.014l1.307,0.5l1.537-0.102
			l0.918-1.236l-0.344-1.5l-0.797-0.594l-1.287-0.492l-0.02-0.008l-1.498-0.65l-0.018-0.01l-1.543-0.75l-1.475-0.801l-0.496-0.299
			l-1.529-0.17L-360.265,907.93z"/>
		<path style="fill:#CBAF80;" d="M-243.401,911.837l-0.066,0.033l-0.641,0.262c-1.692,0.613-3.488,0.492-5.258,0.492l-1.398,0.645
			l-0.416,1.482l0.859,1.279l0.955,0.268c1.651,0.082,3.273,0.013,4.895-0.266C-243.806,914.785-243.426,913.358-243.401,911.837z"
			/>
		<path style="fill:#CBAF80;" d="M-333.54,912.478l-1.586,0.125l-1.529,0.019h-0.022l-0.834-0.018l-1.412,0.615l-0.447,1.473
			l0.83,1.297l0.951,0.289l0.855,0.018l0.029,0.002l0.031-0.002l1.65-0.018l0.063-0.002l0.063-0.004l1.438-0.113l0.615,0.096
			l0.123,0.019l0.123,0.004l0.891,0.018h0.02h0.02h1.453l1.398-0.645l0.416-1.482l-0.857-1.279l-0.957-0.268h-1.414h-0.039
			l-0.736-0.018l-0.703-0.111l-0.215-0.033L-333.54,912.478z"/>
		<path style="fill:#CBAF80;" d="M-316.915,913.267l-0.416,1.482l0.859,1.279l0.955,0.268h7.352l1.397-0.645l0.418-1.482
			l-0.859-1.279l-0.955-0.268h-7.352L-316.915,913.267z"/>
		<path style="fill:#CBAF80;" d="M-294.864,913.267l-0.416,1.482l0.857,1.279l0.957,0.268h7.35l1.398-0.645l0.416-1.482
			l-0.857-1.279l-0.957-0.268h-7.35L-294.864,913.267z"/>
		<path style="fill:#CBAF80;" d="M-272.813,913.267l-0.416,1.482l0.857,1.279l0.957,0.268h7.35l1.398-0.645l0.416-1.482
			l-0.859-1.279l-0.955-0.268h-7.35L-272.813,913.267z"/>
	</g>
</g>
</svg>