<?xml version="1.0" encoding="iso-8859-1"?>
<!-- Uploaded to: SVG Repo, www.svgrepo.com, Generator: SVG Repo Mixer Tools -->
<svg height="800px" width="800px" version="1.1" id="Layer_1" xmlns="http://www.w3.org/2000/svg" xmlns:xlink="http://www.w3.org/1999/xlink" 
	 viewBox="0 0 512.001 512.001" xml:space="preserve">
<path style="fill:#E6E7E8;" d="M380.186,503.281H131.817c-26.349,0-47.708-21.36-47.708-47.708V56.429
	c0-26.349,21.36-47.708,47.708-47.708h248.369c26.349,0,47.708,21.36,47.708,47.708v399.144
	C427.894,481.92,406.535,503.281,380.186,503.281z"/>
<path style="fill:#D1D3D4;" d="M380.186,8.72h-25.907c26.349,0,47.708,21.36,47.708,47.708v399.144
	c0,26.349-21.36,47.708-47.708,47.708h25.907c26.349,0,47.708-21.36,47.708-47.708V56.429C427.894,30.08,406.535,8.72,380.186,8.72z
	"/>
<circle style="fill:#E44F50;" cx="160.858" cy="84.353" r="40.031"/>
<circle style="fill:#F5BA3D;" cx="160.858" cy="198.831" r="40.031"/>
<circle style="fill:#99D641;" cx="160.858" cy="309.286" r="40.031"/>
<circle style="fill:#588EED;" cx="160.858" cy="423.624" r="40.031"/>
<circle style="fill:#F276A0;" cx="350.713" cy="84.353" r="40.031"/>
<circle style="fill:#FFDD00;" cx="350.713" cy="198.831" r="40.031"/>
<circle style="fill:#00AF64;" cx="350.713" cy="309.286" r="40.031"/>
<circle style="fill:#69539C;" cx="350.713" cy="423.624" r="40.031"/>
<path style="fill:#F7F7F7;" d="M255.949,463.656L255.949,463.656c-9.632,0-17.44-7.809-17.44-17.44V65.785
	c0-9.632,7.809-17.44,17.44-17.44l0,0c9.632,0,17.44,7.809,17.44,17.44v380.431C273.39,455.848,265.581,463.656,255.949,463.656z"/>
<path d="M160.857,35.597c-26.882,0-48.753,21.87-48.753,48.751s21.87,48.751,48.753,48.751c26.881,0,48.751-21.87,48.751-48.751
	C209.607,57.466,187.738,35.597,160.857,35.597z M160.857,115.659c-17.266,0-31.312-14.046-31.312-31.311
	s14.046-31.311,31.312-31.311c17.265,0,31.311,14.046,31.311,31.311S178.12,115.659,160.857,115.659z"/>
<path d="M160.857,150.085c-26.882,0-48.753,21.87-48.753,48.751c0,26.882,21.87,48.751,48.753,48.751
	c26.881,0,48.751-21.87,48.751-48.751C209.607,171.955,187.738,150.085,160.857,150.085z M160.857,230.148
	c-17.266,0-31.312-14.046-31.312-31.311s14.046-31.311,31.312-31.311c17.265,0,31.311,14.046,31.311,31.311
	S178.12,230.148,160.857,230.148z"/>
<path d="M160.857,260.531c-26.882,0-48.753,21.87-48.753,48.751s21.87,48.751,48.753,48.751c26.881,0,48.751-21.87,48.751-48.751
	C209.607,282.401,187.738,260.531,160.857,260.531z M160.857,340.594c-17.266,0-31.312-14.046-31.312-31.311
	s14.046-31.311,31.312-31.311c17.265,0,31.311,14.046,31.311,31.311S178.12,340.594,160.857,340.594z"/>
<path d="M160.857,374.873c-26.882,0-48.753,21.87-48.753,48.751c0,26.881,21.87,48.751,48.753,48.751
	c26.881,0,48.751-21.87,48.751-48.751C209.607,396.743,187.738,374.873,160.857,374.873z M160.857,454.935
	c-17.266,0-31.312-14.046-31.312-31.311c0-17.265,14.046-31.311,31.312-31.311c17.265,0,31.311,14.046,31.311,31.311
	C192.168,440.889,178.12,454.935,160.857,454.935z"/>
<path d="M350.718,35.597c-26.882,0-48.753,21.87-48.753,48.751s21.87,48.751,48.753,48.751c26.881,0,48.751-21.87,48.751-48.751
	C399.468,57.466,377.599,35.597,350.718,35.597z M350.718,115.659c-17.266,0-31.312-14.046-31.312-31.311
	s14.046-31.311,31.312-31.311c17.265,0,31.311,14.046,31.311,31.311S367.981,115.659,350.718,115.659z"/>
<path d="M350.718,150.085c-26.882,0-48.753,21.87-48.753,48.751c0,26.882,21.87,48.751,48.753,48.751
	c26.881,0,48.751-21.87,48.751-48.751C399.468,171.955,377.599,150.085,350.718,150.085z M350.718,230.148
	c-17.266,0-31.312-14.046-31.312-31.311s14.046-31.311,31.312-31.311c17.265,0,31.311,14.046,31.311,31.311
	S367.981,230.148,350.718,230.148z"/>
<path d="M350.718,260.531c-26.882,0-48.753,21.87-48.753,48.751s21.87,48.751,48.753,48.751c26.881,0,48.751-21.87,48.751-48.751
	C399.468,282.401,377.599,260.531,350.718,260.531z M350.718,340.594c-17.266,0-31.312-14.046-31.312-31.311
	s14.046-31.311,31.312-31.311c17.265,0,31.311,14.046,31.311,31.311S367.981,340.594,350.718,340.594z"/>
<path d="M350.718,374.873c-26.882,0-48.753,21.87-48.753,48.751c0,26.881,21.87,48.751,48.753,48.751
	c26.881,0,48.751-21.87,48.751-48.751C399.468,396.743,377.599,374.873,350.718,374.873z M350.718,454.935
	c-17.266,0-31.312-14.046-31.312-31.311c0-17.265,14.046-31.311,31.312-31.311c17.265,0,31.311,14.046,31.311,31.311
	C382.029,440.889,367.981,454.935,350.718,454.935z"/>
<path d="M380.186,0h-248.37c-31.115,0-56.427,25.313-56.427,56.429v399.144c0,31.115,25.313,56.429,56.427,56.429h248.37
	c31.115,0,56.427-25.313,56.427-56.429V56.429C436.613,25.313,411.3,0,380.186,0z M419.173,455.573
	c0,21.498-17.49,38.988-38.987,38.988h-248.37c-21.498,0-38.987-17.49-38.987-38.988V56.429c0-21.498,17.489-38.988,38.987-38.988
	h248.37c21.497,0,38.987,17.49,38.987,38.988L419.173,455.573L419.173,455.573z"/>
<path d="M255.949,39.624c-14.424,0-26.16,11.735-26.16,26.16v380.431c0,14.425,11.736,26.16,26.16,26.16
	c14.424,0,26.16-11.735,26.16-26.16V173.449c0-4.816-3.903-8.72-8.72-8.72s-8.72,3.904-8.72,8.72v272.766
	c0,4.809-3.911,8.72-8.72,8.72c-4.809,0-8.72-3.911-8.72-8.72V65.785c0-4.809,3.911-8.72,8.72-8.72c4.809,0,8.72,3.911,8.72,8.72
	v33.253c0,4.816,3.903,8.72,8.72,8.72s8.72-3.904,8.72-8.72V65.785C282.11,51.359,270.374,39.624,255.949,39.624z"/>
<circle cx="273.394" cy="131.767" r="8.72"/>
</svg>